<svg width="75" height="57" viewBox="0 0 75 57" fill="none" xmlns="http://www.w3.org/2000/svg">
<g clip-path="url(#clip0_36_100)">
<path d="M57.1875 54.4391C57.1875 57.8537 21.5625 57.8537 21.5625 54.4391C21.5625 48.2582 24.1093 42.8804 29.5882 40.0579C30.7939 41.1859 32.2937 42.0919 33.9836 42.7133C35.6735 43.3347 37.5131 43.6566 39.375 43.6566C41.2369 43.6566 43.0765 43.3347 44.7664 42.7133C46.4563 42.0919 47.9561 41.1859 49.1618 40.0579C54.6406 42.8805 57.1875 48.2583 57.1875 54.4391ZM57.1875 19.3593C59.1722 19.3593 61.1123 18.8914 62.7625 18.0148C64.4127 17.1381 65.6988 15.8921 66.4583 14.4343C67.2178 12.9765 67.4165 11.3723 67.0294 9.82474C66.6422 8.27714 65.6865 6.85558 64.2831 5.73982C62.8797 4.62406 61.0917 3.86421 59.1452 3.55638C57.1986 3.24854 55.181 3.40653 53.3474 4.01038C51.5138 4.61422 49.9466 5.6368 48.844 6.94879C47.7414 8.26078 47.1528 9.80327 47.1528 11.3812C47.1528 12.4289 47.4124 13.4663 47.9167 14.4343C48.421 15.4022 49.1601 16.2817 50.0919 17.0226C51.0237 17.7634 52.1299 18.3511 53.3474 18.752C54.5649 19.1529 55.8697 19.3593 57.1875 19.3593ZM66.9743 18.0267C65.7686 19.1547 64.2688 20.0608 62.5789 20.6822C60.889 21.3036 59.0494 21.6254 57.1875 21.6254C55.3256 21.6254 53.486 21.3036 51.7961 20.6822C50.1062 20.0608 48.6064 19.1547 47.4007 18.0267C44.9103 19.34 42.9325 21.1816 41.6914 23.343C44.9804 23.7992 47.9136 25.262 49.8619 27.4176C51.8101 29.5733 52.6183 32.2501 52.113 34.874C62.3394 35.2654 75 34.4437 75 32.408C75 26.2271 72.4531 20.8493 66.9743 18.0267ZM21.5625 19.3593C23.5472 19.3593 25.4873 18.8914 27.1375 18.0148C28.7877 17.1381 30.0738 15.8921 30.8333 14.4343C31.5928 12.9765 31.7915 11.3723 31.4044 9.82474C31.0172 8.27714 30.0615 6.85558 28.6581 5.73982C27.2547 4.62406 25.4667 3.86421 23.5202 3.55638C21.5736 3.24854 19.556 3.40653 17.7224 4.01038C15.8888 4.61422 14.3216 5.6368 13.219 6.94879C12.1164 8.26078 11.5278 9.80327 11.5278 11.3812C11.5278 12.4289 11.7874 13.4663 12.2917 14.4343C12.796 15.4022 13.5351 16.2817 14.4669 17.0226C15.3987 17.7634 16.5049 18.3511 17.7224 18.752C18.9399 19.1529 20.2447 19.3593 21.5625 19.3593ZM26.637 34.874C26.1317 32.2501 26.9399 29.5733 28.8881 27.4176C30.8364 25.262 33.7696 23.7992 37.0586 23.343C35.8175 21.1816 33.8397 19.34 31.3493 18.0267C30.1436 19.1547 28.6439 20.0608 26.954 20.6822C25.2641 21.3036 23.4244 21.6254 21.5625 21.6254C19.7007 21.6254 17.861 21.3036 16.1711 20.6822C14.4812 20.0608 12.9815 19.1547 11.7758 18.0267C6.29692 20.8493 3.75 26.2271 3.75 32.408C3.75 34.4437 16.4106 35.2654 26.637 34.874ZM39.375 25.4343C37.3903 25.4343 35.4502 25.9022 33.8 26.7788C32.1498 27.6555 30.8637 28.9015 30.1042 30.3593C29.3447 31.8171 29.146 33.4212 29.5331 34.9688C29.9203 36.5164 30.876 37.938 32.2794 39.0538C33.6828 40.1695 35.4708 40.9294 37.4173 41.2372C39.3639 41.545 41.3815 41.3871 43.2151 40.7832C45.0487 40.1794 46.6159 39.1568 47.7185 37.8448C48.8211 36.5328 49.4097 34.9903 49.4097 33.4124C49.4097 31.2965 48.3524 29.2672 46.4706 27.771C44.5887 26.2748 42.0364 25.4343 39.375 25.4343Z" fill="#FFAA17"/>
</g>
<defs>
<clipPath id="clip0_36_100">
<rect width="75" height="57" fill="white"/>
</clipPath>
</defs>
</svg>
