<svg width="97" height="89" viewBox="0 0 97 89" fill="none" xmlns="http://www.w3.org/2000/svg">
<path fill-rule="evenodd" clip-rule="evenodd" d="M79.8853 42.9342C84.1989 42.9342 87.6948 45.5003 87.6948 48.6665C87.6948 51.8328 84.1989 54.3988 79.8853 54.3988C75.5717 54.3988 72.0759 51.8328 72.0759 48.6665C72.0759 45.5003 75.5727 42.9342 79.8853 42.9342ZM69.7954 16.0106L68.4102 12.8586C68.2027 12.3851 67.285 12.3851 67.0765 12.8586L65.6904 16.0106C65.4294 16.6094 64.6651 17.043 63.762 17.043L59.2496 17.0366C58.5696 17.0359 58.2844 17.6774 58.8373 17.9715L62.4903 19.9131C63.1839 20.2826 63.5079 20.9498 63.2285 21.5799L61.8259 24.7298C61.6144 25.204 62.3565 25.6013 62.9055 25.3079L66.5187 23.372C67.2123 22.9854 68.1939 22.9576 68.935 23.3535L72.5803 25.3079C73.1283 25.6013 73.8713 25.204 73.6599 24.7298L72.2815 21.6333C71.975 21.0224 72.2427 20.314 72.9964 19.9131L76.6494 17.9715C77.2033 17.6767 76.9171 17.0352 76.2372 17.0366L71.8198 17.043C70.9274 17.0737 70.0816 16.6657 69.7954 16.0106ZM51.0948 6.89918C51.3654 7.51649 52.1627 7.90239 53.0057 7.87249L57.9236 7.86537C59.0071 7.86394 59.4542 8.88424 58.5793 9.34846L54.5257 11.5037C53.8146 11.8818 53.5615 12.551 53.8505 13.1278L55.3841 16.5724C55.7207 17.3293 54.5373 17.9544 53.6691 17.4888L49.6233 15.3207C48.9249 14.9469 47.9966 14.9726 47.3428 15.3378L43.3289 17.4888C42.4395 17.9658 41.2861 17.3115 41.613 16.5724L43.1699 13.0779C43.4327 12.4827 43.1262 11.8526 42.4724 11.5044L38.4188 9.34918C37.5439 8.88424 37.9939 7.86466 39.0745 7.86608L44.0807 7.8732C44.9333 7.8732 45.654 7.46451 45.9014 6.89918L47.4398 3.40184C47.7706 2.64926 49.2285 2.64926 49.5593 3.40184L51.0948 6.89918ZM17.1147 42.9342C21.4263 42.9342 24.9242 45.5003 24.9242 48.6665C24.9242 51.8328 21.4273 54.3988 17.1147 54.3988C12.8021 54.3988 9.30426 51.8328 9.30426 48.6665C9.30426 45.5003 12.8011 42.9342 17.1147 42.9342ZM15.1146 26.4536L13.7304 23.3015C13.5228 22.8281 12.6042 22.8281 12.3966 23.3015L11.0095 26.4528C10.7486 27.0516 9.98423 27.4852 9.08213 27.4852L4.56969 27.4788C3.89069 27.4774 3.60551 28.1203 4.15744 28.4137L7.81046 30.356C8.50401 30.7256 8.82896 31.3927 8.54863 32.0228L7.14601 35.172C6.93552 35.6462 7.67757 36.0442 8.22659 35.7501L11.8389 33.8142C12.5314 33.4269 13.5141 33.4005 14.2542 33.7964L17.9004 35.7501C18.4591 36.0499 19.1886 35.6412 18.981 35.172L17.6026 32.0769C17.2961 31.466 17.5638 30.7569 18.3175 30.356L21.9695 28.4137C22.5224 28.1203 22.2411 27.4781 21.5583 27.4788L17.1399 27.4852C16.2475 27.5166 15.4026 27.1079 15.1165 26.4536H15.1146ZM31.3252 16.0106L29.941 12.8586C29.7325 12.3851 28.8148 12.3851 28.6063 12.8586L27.2202 16.0106C26.9592 16.6094 26.1949 17.043 25.2918 17.043L20.7794 17.0366C20.0994 17.0359 19.8142 17.6774 20.3671 17.9715L24.0211 19.9131C24.7146 20.2826 25.0386 20.9498 24.7593 21.5799L23.3566 24.7298C23.1452 25.204 23.8872 25.6013 24.4363 25.3079L28.0495 23.372C28.7421 22.9854 29.7247 22.9576 30.4658 23.3535L34.111 25.3079C34.6591 25.6013 35.4021 25.204 35.1916 24.7298L33.8132 21.6333C33.5067 21.0224 33.7744 20.314 34.5281 19.9131L38.1812 17.9715C38.735 17.6767 38.4489 17.0352 37.7679 17.0366L33.3506 17.043C32.4582 17.0737 31.6113 16.6657 31.3252 16.0106ZM66.4964 57.8385C66.7205 57.8385 66.9135 57.768 67.0503 57.637C68.3355 56.4045 69.9477 55.375 71.7761 54.6146C72.1651 54.453 72.2505 54.0727 71.9527 53.8278C69.3618 51.6982 68.6498 48.8125 70.0078 46.1475C70.1456 45.8762 69.9554 45.5793 69.583 45.4839C66.381 44.6679 62.0005 44.5398 58.8868 45.5295C58.5521 45.6355 58.3863 45.9111 58.5036 46.1639C59.7375 48.8203 58.9459 51.768 56.3842 53.8641C56.0815 54.1119 56.1737 54.4985 56.5733 54.6566C58.4445 55.3964 60.1002 56.4024 61.4107 57.6406C61.5465 57.7695 61.7386 57.8385 61.9607 57.8385H66.4964ZM64.7204 32.6693C60.4068 32.6693 56.9099 35.2361 56.9099 38.4023C56.9099 41.5686 60.4068 44.1347 64.7204 44.1347C69.034 44.1347 72.5298 41.5679 72.5298 38.4023C72.5298 35.2368 69.033 32.6693 64.7204 32.6693ZM32.5328 32.6693C28.2193 32.6693 24.7224 35.2361 24.7224 38.4023C24.7224 41.5686 28.2193 44.1347 32.5328 44.1347C36.8464 44.1347 40.3423 41.5679 40.3423 38.4023C40.3423 35.2368 36.8455 32.6693 32.5328 32.6693ZM35.113 57.8385C35.3371 57.8385 35.5301 57.768 35.6669 57.6377C36.9454 56.4117 38.5536 55.38 40.3928 54.6146C40.7808 54.453 40.8661 54.0742 40.5703 53.8292C38.0405 51.7417 37.2868 48.8566 38.5187 46.2215C38.639 45.9638 38.4644 45.6833 38.121 45.5814C34.9268 44.6295 30.7607 44.574 27.5218 45.4789C27.1649 45.5786 26.9825 45.8726 27.1164 46.1354C28.4792 48.8203 27.647 51.7296 25.0056 53.8627C24.6991 54.1098 24.7893 54.4992 25.1899 54.658C27.0611 55.3985 28.7159 56.4038 30.0244 57.6413C30.1612 57.7702 30.3533 57.8392 30.5754 57.8392H35.1121L35.113 57.8385ZM85.9876 26.4536C86.2738 27.1079 87.1196 27.5166 88.011 27.4852L92.4294 27.4788C93.1093 27.4774 93.3955 28.1189 92.8416 28.4137L89.1876 30.356C88.4349 30.7562 88.1672 31.466 88.4727 32.0769L89.8511 35.172C90.0626 35.6462 89.3205 36.0442 88.7715 35.7501L85.1263 33.7964C84.3861 33.4005 83.4026 33.4269 82.709 33.8142L79.0977 35.7501C78.5487 36.0442 77.8066 35.6469 78.0171 35.172L79.4197 32.0228C79.7001 31.3927 79.3751 30.7248 78.6816 30.356L75.0285 28.4137C74.4766 28.1203 74.7608 27.4781 75.4408 27.4788L79.9532 27.4852C80.8553 27.4852 81.6207 27.0523 81.8816 26.4528L83.2677 23.3015C83.4753 22.8281 84.3929 22.8281 84.6015 23.3015L85.9857 26.4536H85.9876ZM48.5 42.9342C52.8126 42.9342 56.3095 45.5003 56.3095 48.6665C56.3095 51.8328 52.8126 54.3988 48.5 54.3988C44.1874 54.3988 40.6905 51.8328 40.6905 48.6665C40.6905 45.5003 44.1864 42.9342 48.5 42.9342ZM52.4178 68.3633H44.5657C44.1825 68.3633 43.8683 68.1333 43.8683 67.8514V64.0059C43.8683 63.4398 43.2436 62.982 42.4734 62.982C41.7032 62.982 41.0785 63.4398 41.0785 64.0059V67.8514C41.0785 68.1333 40.7652 68.3633 40.3811 68.3633H36.6437C35.8735 68.3633 35.2488 67.9055 35.2488 67.3402V64.5776C35.2488 59.4014 40.9971 55.1828 48.048 55.1828C55.5568 55.1828 61.7473 58.8261 61.7473 64.5776V67.3402C61.7473 67.9055 61.1236 68.3633 60.3524 68.3633H56.6015C56.2164 68.3633 55.904 68.1333 55.904 67.8514V64.0059C55.904 63.4398 55.2793 62.982 54.5092 62.982C53.739 62.982 53.1143 63.4398 53.1143 64.0059V67.8514C53.1143 68.1333 52.802 68.3633 52.4178 68.3633ZM41.4394 32.9897C46.0343 32.0556 51.1617 32.2072 55.6858 33.1172C56.1553 33.2111 56.3522 33.6156 56.0709 33.9075C54.1027 35.9431 53.5741 38.5803 54.7138 40.9719C54.9127 41.3856 54.3559 41.7786 53.7991 41.617C50.5506 40.6729 46.7695 40.6423 43.4812 41.5316C42.9312 41.6811 42.3919 41.2959 42.5791 40.8879C43.6927 38.4643 43.101 35.8107 41.065 33.7864C40.773 33.4974 40.9651 33.0851 41.4394 32.9897ZM48.5 19.9494C52.8126 19.9494 56.3095 22.5162 56.3095 25.6817C56.3095 28.8473 52.8126 31.4148 48.5 31.4148C44.1874 31.4148 40.6905 28.848 40.6905 25.6817C40.6905 22.5155 44.1864 19.9494 48.5 19.9494ZM83.8032 68.3633H75.952C75.5679 68.3633 75.2546 68.1333 75.2546 67.8514V64.0059C75.2546 63.4398 74.6308 62.982 73.8607 62.982C73.0905 62.982 72.4658 63.4398 72.4658 64.0059V67.8514C72.4658 68.1333 72.1525 68.3633 71.7684 68.3633H68.0319C67.2618 68.3633 66.6371 67.9055 66.6371 67.3402V64.5776C66.6371 59.4014 72.3853 55.1828 79.4362 55.1828C86.944 55.1828 93.1355 58.8261 93.1355 64.5776V67.3402C93.1355 67.9055 92.5109 68.3633 91.7407 68.3633H87.9887C87.6046 68.3633 87.2903 68.1333 87.2903 67.8514V64.0059C87.2903 63.4398 86.6666 62.982 85.8964 62.982C85.1262 62.982 84.5016 63.4398 84.5016 64.0059V67.8514C84.5016 68.1333 84.1873 68.3633 83.8032 68.3633ZM21.0325 68.3633H13.1804C12.7963 68.3633 12.4829 68.1333 12.4829 67.8514V64.0059C12.4829 63.4398 11.8583 62.982 11.0881 62.982C10.3179 62.982 9.69323 63.4398 9.69323 64.0059V67.8514C9.69323 68.1333 9.37992 68.3633 8.9958 68.3633H5.25839C4.48821 68.3633 3.86353 67.9055 3.86353 67.3402V64.5776C3.86353 59.4014 9.61174 55.1828 16.6627 55.1828C24.1705 55.1828 30.362 58.8261 30.362 64.5776V67.3402C30.362 67.9055 29.7373 68.3633 28.9671 68.3633H25.2152C24.831 68.3633 24.5177 68.1333 24.5177 67.8514V64.0059C24.5177 63.4398 23.8931 62.982 23.1229 62.982C22.3527 62.982 21.728 63.4398 21.728 64.0059V67.8514C21.728 68.1333 21.4137 68.3633 21.0306 68.3633H21.0325Z" fill="#FFAA17"/>
</svg>
