<svg width="89" height="95" viewBox="0 0 89 95" fill="none" xmlns="http://www.w3.org/2000/svg">
<path d="M33.6983 4.24531H27.1346V10.0136H55.1279V4.24531H48.5641C48.1643 4.24531 47.8392 3.96773 47.8392 3.62633V0H34.418V3.62633C34.418 3.96773 34.0981 4.24531 33.6983 4.24531ZM78.6468 23.8123H63.1657V37.0322H78.6468V23.8123ZM69.4322 22.5744H71.911V6.09781H56.5776V8.21453H68.709C69.1089 8.21453 69.4339 8.49211 69.4339 8.83352V22.5744H69.4322ZM65.2794 30.2501C65.0482 29.977 65.116 29.5895 65.4376 29.3921C65.7575 29.1902 66.2111 29.2496 66.4475 29.5227L69.0393 32.5271L75.3858 25.8534C75.6378 25.5877 76.095 25.5505 76.4009 25.7643C76.7121 25.9795 76.7608 26.3655 76.5087 26.6312L69.5904 33.8972C69.2948 34.2208 68.723 34.2416 68.4274 33.8972L65.2794 30.2501ZM78.6468 43.2933H63.1657V56.5131H78.6468V43.2933ZM69.4322 42.0598H71.911V38.2642H69.4322V42.0598ZM65.2794 49.7355C65.0482 49.4623 65.116 49.0749 65.4376 48.873C65.7575 48.6712 66.2111 48.7335 66.4475 49.0081L69.0393 52.0125L75.3858 45.3387C75.6378 45.073 76.095 45.0315 76.4009 45.2467C76.7121 45.462 76.7608 45.8523 76.5087 46.1136L69.5904 53.3841C69.2948 53.7077 68.723 53.7255 68.4274 53.3796L65.2794 49.7355ZM78.6468 62.7787H63.1657V76H78.6468V62.7787ZM61.7159 72.7433V70.6266H13.5551C13.1553 70.6266 12.8303 70.349 12.8303 70.0076V8.83203C12.8303 8.49063 13.1553 8.21305 13.5551 8.21305H25.6866V6.09781H10.3532V72.7433H61.7159ZM69.4322 61.5422H71.911V57.7511H69.4322V61.5422ZM62.4408 61.5422H67.9842V57.7511H62.4408C62.041 57.7511 61.7159 57.4735 61.7159 57.1321V42.6787C61.7159 42.3344 62.041 42.0598 62.4408 42.0598H67.9842V38.2642H62.4408C62.041 38.2642 61.7159 37.9911 61.7159 37.6497V23.1919C61.7159 22.8505 62.041 22.5729 62.4408 22.5729H67.9842V9.45102H56.5776V10.6341C56.5776 10.9755 56.2525 11.253 55.8527 11.253H26.4115C26.0116 11.253 25.6866 10.9755 25.6866 10.6341V9.45102H14.2748V69.3901H61.7159V62.1612C61.7159 61.8198 62.041 61.5422 62.4408 61.5422ZM65.2794 69.2209C65.0482 68.9477 65.116 68.5603 65.4376 68.3584C65.7575 68.1566 66.2111 68.2159 66.4475 68.4935L69.0393 71.4934L75.3858 64.8197C75.6378 64.5584 76.095 64.5169 76.4009 64.7306C76.7121 64.9459 76.7608 65.3318 76.5087 65.5975L69.5904 72.8635C69.2948 73.1916 68.723 73.2079 68.4274 72.8635L65.2794 69.2209ZM19.9659 57.0401C19.0151 57.0401 19.0151 55.8036 19.9659 55.8036H54.6985C55.6493 55.8036 55.6493 57.0401 54.6985 57.0401H19.9659ZM28.8207 60.5744C27.8647 60.5744 27.8647 59.3379 28.8207 59.3379H54.7002C55.6511 59.3379 55.6511 60.5744 54.7002 60.5744H28.8207ZM19.9659 60.5744C19.0151 60.5744 19.0151 59.3379 19.9659 59.3379H25.1894C26.1403 59.3379 26.1403 60.5744 25.1894 60.5744H19.9659ZM45.8802 64.1087C44.9294 64.1087 44.9294 62.8722 45.8802 62.8722H54.7002C55.6511 62.8722 55.6511 64.1087 54.7002 64.1087H45.8802ZM19.9659 64.1087C19.0151 64.1087 19.0151 62.8722 19.9659 62.8722H42.3167C43.2676 62.8722 43.2676 64.1087 42.3167 64.1087H19.9659ZM42.9929 15.5221C40.415 13.3252 36.2466 13.3252 33.6705 15.5221C31.0979 17.7234 31.0979 21.283 33.6705 23.4828C36.2484 25.6797 40.4168 25.6797 42.9929 23.4828C45.5638 21.283 45.5638 17.7234 42.9929 15.5221ZM38.3308 12.6409C42.7704 12.6409 46.3669 15.7121 46.3669 19.5032C46.3669 23.2943 42.7704 26.3655 38.3308 26.3655C33.8913 26.3655 30.2948 23.2943 30.2948 19.5032C30.2948 15.7121 33.8913 12.6409 38.3308 12.6409ZM31.2404 28.6499L28.3774 26.2007C28.1463 26.0077 27.7673 26.0077 27.5344 26.2007L17.5462 34.7344C17.315 34.9273 17.315 35.2554 17.5462 35.4498L20.4092 37.8991C20.6351 38.092 21.0193 38.092 21.247 37.8991L31.2404 29.3654C31.4664 29.1724 31.4664 28.8444 31.2404 28.6499ZM47.9592 26.2022L45.0962 28.6514C44.865 28.8444 44.865 29.1724 45.0962 29.3669L55.0844 37.9005C55.3156 38.0935 55.6945 38.0935 55.9275 37.9005L58.7904 35.4513C59.0216 35.2584 59.0216 34.9303 58.7904 34.7359L48.8023 26.2022C48.5693 26.0077 48.1904 26.0077 47.9592 26.2022ZM45.3187 31.3055L44.4322 32.0625V32.058C44.3036 32.1679 44.1263 32.2347 43.9351 32.2391L39.7858 32.3193C39.16 32.349 37.6373 32.6562 37.3313 32.9249L33.5228 36.1772C33.1734 36.4755 35.2715 38.3607 37.5782 36.3954C39.4207 34.8175 41.7031 35.6428 43.4866 37.1569L48.4337 41.3517L51.5974 38.3058L52.5535 37.4805L45.3187 31.3055ZM27.8455 44.2448L30.4773 42.0019C31.2369 41.3502 29.5404 39.9059 28.7825 40.5546L26.1559 42.7975C25.3963 43.4447 27.0824 44.8875 27.8455 44.2448ZM28.8659 45.1191L28.0732 45.7959C27.3136 46.4446 29.005 47.8919 29.7629 47.2432L32.8431 44.6129C33.6027 43.9642 31.9114 42.517 31.1535 43.1656L28.8659 45.1191ZM39.8379 49.6642L38.3743 50.9096C37.0045 52.0793 34.9047 51.153 34.2302 49.8156L33.9539 50.0516C32.8796 50.9645 31.3569 50.5727 30.4947 49.8112H30.4895C30.1157 49.492 29.8098 49.0705 29.6707 48.6252C27.8525 48.8938 25.8465 47.0087 26.5714 45.5198C24.9165 45.0063 23.7136 43.1345 25.1269 41.9262L25.5267 41.5848L23.5954 39.0688L22.7576 38.3533C22.177 38.8491 21.7668 39.2795 20.8264 39.2795C20.3049 39.2795 19.7816 39.1118 19.3818 38.7704L16.5189 36.3256C15.721 35.6488 15.721 34.537 16.5189 33.8601L26.5071 25.3309C27.3049 24.6495 28.6017 24.6495 29.3943 25.3309L32.2573 27.7756C33.0552 28.4525 33.0552 29.5643 32.2573 30.2412L32.04 30.4312L32.7736 31.0576L36.7542 31.7775C37.533 31.4034 38.6559 31.1719 39.6711 31.0917L43.6031 31.016L44.2879 30.4312C43.796 30.0111 43.4692 29.6608 43.4692 29.0091C43.4692 28.5638 43.6708 28.117 44.0654 27.7756L46.9336 25.3309C47.7263 24.6495 49.023 24.6495 49.8209 25.3309L59.8091 33.8601C60.6017 34.537 60.6017 35.6488 59.8091 36.3256L56.9461 38.7704C56.1482 39.4517 54.8515 39.4517 54.0588 38.7704L53.5704 38.3533L52.6682 39.1237L49.435 42.2334C51.0898 43.9627 49.5184 46.0705 47.6411 46.1967C47.542 47.3545 46.2261 48.4559 44.872 48.5153C44.5574 50.0338 41.8317 51.2213 40.2395 50.0086L39.8379 49.6642ZM37.0358 45.7974C38.908 44.9766 41.4267 47.0265 40.721 48.6756L41.2094 49.0927C41.9882 49.7236 43.9976 48.5791 43.3041 47.9854L43.3527 47.9468C43.2537 47.9171 43.165 47.8666 43.0868 47.8043L38.5342 43.9123C37.8598 43.3408 38.8836 42.465 39.5546 43.0409L44.1124 46.9285C44.1871 46.9923 44.241 47.071 44.2792 47.1512L44.3227 47.1126C45.0719 47.7523 46.7719 46.3422 45.9984 45.6772L41.3172 41.6501C40.648 41.0741 41.6718 40.2073 42.3428 40.7832L47.0188 44.7925C47.7975 45.4367 49.5706 44.0518 48.1521 42.848L47.9557 42.6832L42.4714 38.0297C41.2738 37.0159 39.791 36.241 38.5933 37.2637C34.9812 40.3483 30.5816 36.9402 32.4989 35.2984L35.4349 32.7913L32.3199 32.2317C32.1669 32.2154 32.0191 32.156 31.9062 32.0595L31.0196 31.298L23.7866 37.479L24.6732 38.236L26.5749 40.6897L27.7621 39.6803C29.4726 38.2167 32.3355 40.0425 32.113 41.8089C33.3159 42.0494 34.3849 43.0335 34.4875 44.0815C35.5965 44.1646 36.6308 44.9127 37.0358 45.7974ZM35.1776 47.2566C35.5774 46.9152 35.9703 46.697 35.6209 46.1121C35.3149 45.603 34.4041 45.0315 33.8669 45.4857L31.2404 47.733C30.8267 48.0819 31.1413 48.6207 31.5168 48.9413C31.8766 49.2486 32.5128 49.5351 32.9317 49.1773L35.1776 47.2566ZM37.5034 47.0205L35.6608 48.5895C34.9012 49.2382 36.5978 50.681 37.3557 50.0323L39.193 48.4634C39.9527 47.8162 38.2613 46.3734 37.5034 47.0205ZM41.1834 16.533C41.4146 16.2598 41.8682 16.196 42.1881 16.3934C42.5132 16.5909 42.5879 16.9783 42.355 17.2514L38.5603 21.7416C38.2943 22.0578 37.7624 22.086 37.4513 21.8084L35.2245 19.8016C34.5692 19.2123 35.6191 18.3662 36.2745 18.951L37.8998 20.4191L41.1834 16.533Z" fill="#FFAA17"/>
</svg>
