<svg width="85" height="87" viewBox="0 0 85 87" fill="none" xmlns="http://www.w3.org/2000/svg">
<path d="M73.1739 48.6325L69.1657 66.3279H69.1623C68.7511 68.1705 66.4014 69.5321 63.6406 69.5274H35.9801C30.7487 69.7446 27.2346 66.4447 22.1481 66.3466V45.412C32.7833 45.6409 41.6776 38.9898 41.7334 31.9973C41.7403 29.8651 44.3006 28.1369 47.4555 28.1369C50.6136 28.1369 53.174 29.8651 53.181 31.9973V44.2719H67.6517C69.2827 44.2742 70.8307 44.7577 71.8914 45.596C72.9522 46.4344 73.4187 47.5414 73.1733 48.632L73.1739 48.6325ZM2.77808 69.3028H13.5486C15.0793 69.3028 16.3232 68.4621 16.3232 67.4252V44.3377C16.3232 43.3008 15.0793 42.4601 13.5486 42.4601H2.77808C1.24388 42.4601 0 43.3008 0 44.3377V67.4252C0 67.9226 0.293703 68.3991 0.815467 68.7517C1.33377 69.1044 2.04203 69.3028 2.77808 69.3028ZM59.8363 18.1369C58.6028 20.6521 55.683 22.6279 51.9582 23.4593C51.6818 23.513 51.4917 23.6835 51.4917 23.8773C51.4917 24.0735 51.6818 24.2439 51.9582 24.2977C55.683 25.129 58.6028 27.1048 59.8363 29.62C59.9158 29.8068 60.1681 29.9376 60.4548 29.9376C60.7416 29.9376 60.9939 29.8068 61.0734 29.62C62.3069 27.1048 65.2267 25.129 68.9515 24.2977C69.2279 24.2439 69.418 24.0735 69.418 23.8773C69.418 23.6835 69.2279 23.513 68.9515 23.4593C65.2267 22.6279 62.3069 20.6521 61.0734 18.1369C60.9939 17.9501 60.7416 17.8193 60.4548 17.8193C60.1681 17.8193 59.9158 17.9501 59.8363 18.1369ZM28.1891 26.3928C26.9556 28.908 24.0358 30.8837 20.311 31.7151C20.0345 31.7688 19.8445 31.9393 19.8445 32.1354C19.8445 32.3293 20.0345 32.4998 20.311 32.5535C24.0358 33.3849 26.9556 35.3606 28.1891 37.8758C28.2686 38.0626 28.5208 38.1934 28.8076 38.1934C29.0944 38.1934 29.3466 38.0626 29.4261 37.8758C30.6597 35.3606 33.5794 33.3849 37.3043 32.5535C37.5807 32.4998 37.7707 32.3293 37.7707 32.1354C37.7707 31.9393 37.5807 31.7688 37.3043 31.7151C33.5794 30.8837 30.6597 28.908 29.4261 26.3928C29.3466 26.2059 29.0944 26.0775 28.8076 26.0775C28.5208 26.0775 28.2686 26.2059 28.1891 26.3928Z" fill="#FFAA17"/>
</svg>
