<svg width="24" height="25" viewBox="0 0 24 25" fill="none" xmlns="http://www.w3.org/2000/svg">
<path d="M7 5.69019C6.46957 5.69019 5.96086 5.89517 5.58579 6.26005C5.21071 6.62493 5 7.11982 5 7.63584V17.3641C5 17.8801 5.21071 18.375 5.58579 18.7399C5.96086 19.1048 6.46957 19.3098 7 19.3098H17C17.5304 19.3098 18.0391 19.1048 18.4142 18.7399C18.7893 18.375 19 17.8801 19 17.3641V7.63584C19 7.11982 18.7893 6.62493 18.4142 6.26005C18.0391 5.89517 17.5304 5.69019 17 5.69019H7ZM11 15.8212L8.293 13.1878L9.707 11.8122L11 13.07L14.793 9.38012L16.207 10.7557L11 15.8212Z" fill="#FFAA17"/>
</svg>
