<svg width="24" height="24" viewBox="0 0 24 24" fill="none" xmlns="http://www.w3.org/2000/svg">
<path d="M7 4.99438C6.46957 4.99438 5.96086 5.19937 5.58579 5.56425C5.21071 5.92913 5 6.42402 5 6.94004V16.6683C5 17.1843 5.21071 17.6792 5.58579 18.0441C5.96086 18.409 6.46957 18.614 7 18.614H17C17.5304 18.614 18.0391 18.409 18.4142 18.0441C18.7893 17.6792 19 17.1843 19 16.6683V6.94004C19 6.42402 18.7893 5.92913 18.4142 5.56425C18.0391 5.19937 17.5304 4.99438 17 4.99438H7ZM11 15.1254L8.293 12.492L9.707 11.1164L11 12.3742L14.793 8.68431L16.207 10.0599L11 15.1254Z" fill="#FFAA17"/>
</svg>
