<svg width="24" height="24" viewBox="0 0 24 24" fill="none" xmlns="http://www.w3.org/2000/svg">
<path d="M7 5.38574C6.46957 5.38574 5.96086 5.59073 5.58579 5.95561C5.21071 6.32049 5 6.81538 5 7.33139V17.0597C5 17.5757 5.21071 18.0706 5.58579 18.4354C5.96086 18.8003 6.46957 19.0053 7 19.0053H17C17.5304 19.0053 18.0391 18.8003 18.4142 18.4354C18.7893 18.0706 19 17.5757 19 17.0597V7.33139C19 6.81538 18.7893 6.32049 18.4142 5.95561C18.0391 5.59073 17.5304 5.38574 17 5.38574H7ZM11 15.5168L8.293 12.8833L9.707 11.5077L11 12.7656L14.793 9.07567L16.207 10.4512L11 15.5168Z" fill="#FFAA17"/>
</svg>
