<svg width="24" height="24" viewBox="0 0 24 24" fill="none" xmlns="http://www.w3.org/2000/svg">
<path d="M7 4.86414C6.46957 4.86414 5.96086 5.06912 5.58579 5.434C5.21071 5.79888 5 6.29377 5 6.80979V16.538C5 17.0541 5.21071 17.549 5.58579 17.9138C5.96086 18.2787 6.46957 18.4837 7 18.4837H17C17.5304 18.4837 18.0391 18.2787 18.4142 17.9138C18.7893 17.549 19 17.0541 19 16.538V6.80979C19 6.29377 18.7893 5.79888 18.4142 5.434C18.0391 5.06912 17.5304 4.86414 17 4.86414H7ZM11 14.9951L8.293 12.3617L9.707 10.9861L11 12.244L14.793 8.55407L16.207 9.92964L11 14.9951Z" fill="#FFAA17"/>
</svg>
