<svg width="75" height="69" viewBox="0 0 75 69" fill="none" xmlns="http://www.w3.org/2000/svg">
<path d="M73.8512 4.6238H60.2745V1.5398C60.2745 0.688152 59.4868 0 58.5121 0H16.4713C15.4966 0 14.709 0.688196 14.709 1.5398V4.6238H1.13226C0.507063 4.6238 0 5.06682 0 5.61309V15.6522C0 23.0718 6.66561 29.1408 15.0399 29.5714C16.5119 37.1072 22.8328 43.1933 31.098 45.2964V57.8987H23.0688C22.0941 57.8987 21.3016 58.5912 21.3016 59.4428V67.4559C21.3016 68.3076 22.0942 69 23.0688 69H51.9312C52.9059 69 53.6984 68.3075 53.6984 67.4559V59.4428C53.6984 58.5911 52.9058 57.8987 51.9312 57.8987H43.902V45.2964C52.1675 43.1888 58.4882 37.1026 59.9601 29.5714C68.3339 29.1455 75 23.0766 75 15.6522V5.61309C75 5.06684 74.493 4.6238 73.8677 4.6238H73.8512ZM2.26246 15.657V6.60713H14.7075V26.2081C14.7075 26.6726 14.737 27.1285 14.7715 27.5845C7.77113 27.0511 2.26246 21.9067 2.26246 15.657ZM44.3827 29.335L37.4906 26.165L30.5985 29.335L31.9081 22.6165L26.3255 17.8722L34.0396 16.8915L37.4906 10.7795L40.9416 16.8915L48.6557 17.8722L43.0731 22.6165L44.3827 29.335ZM72.7182 15.657C72.7182 21.9067 67.2095 27.0513 60.2092 27.5843C60.2437 27.1283 60.2732 26.6724 60.2732 26.2079V6.60691H72.7182L72.7182 15.657Z" fill="white"/>
</svg>
