<svg width="92" height="85" viewBox="0 0 92 85" fill="none" xmlns="http://www.w3.org/2000/svg">
<path d="M89.7853 78.0717L80.3558 60.871C79.6936 59.6728 78.4617 58.9575 77.0604 58.9575H58.7448C66.6975 49.2719 74.4269 38.4248 74.4269 29.1091C74.4269 13.9595 61.6756 1.63464 46.0019 1.63464C30.3257 1.63464 17.5722 13.9595 17.5722 29.1091C17.5722 38.4141 25.3049 49.2657 33.2614 58.9575H14.9434C13.5344 58.9575 12.3013 59.6749 11.6454 60.8749L2.22149 78.0662C1.58687 79.2105 1.62074 80.5057 2.31754 81.6252C3.01315 82.7312 4.17904 83.3654 5.51615 83.3654H19.4146H29.7236H86.4878C87.8296 83.3654 88.9951 82.7292 89.685 81.62C90.3755 80.5097 90.4123 79.2166 89.7853 78.0717ZM77.0604 61.6293C77.4403 61.6293 77.7368 61.8026 77.9153 62.1257L79.6531 65.2956H53.4221C54.4364 64.1023 55.4763 62.8783 56.5246 61.6293H77.0604ZM46.0019 4.30629C60.1512 4.30629 71.6627 15.4328 71.6627 29.1089C71.6627 39.6301 59.7949 53.5906 51.1293 63.7842C49.2842 65.9546 47.5258 68.0231 46.0021 69.9094C44.4795 68.0249 42.723 65.9579 40.8798 63.7893C32.2101 53.5881 20.3364 39.6172 20.3364 29.1091C20.3364 15.4328 31.8499 4.30629 46.0019 4.30629ZM14.9434 61.6293H25.0217L23.7528 65.2956H12.3505L14.089 62.1242C14.2657 61.8004 14.5614 61.6293 14.9434 61.6293ZM4.68286 80.2428C4.49608 79.9427 4.48762 79.6352 4.66092 79.3227L7.59293 73.9742H20.7463L18.4198 80.6936H5.51615C5.15125 80.6938 4.86997 80.5401 4.68286 80.2428ZM21.3346 80.6938L23.977 73.0624C24.1181 72.6549 24.0479 72.2067 23.7882 71.858C23.5283 71.5092 23.1109 71.3026 22.6663 71.3026H9.05757L10.8857 67.9673H24.7478C25.3421 67.9673 25.8699 67.6002 26.0585 67.0552L27.9365 61.6293H35.4809C36.5843 62.9442 37.6789 64.2321 38.7437 65.4853C40.8629 67.9786 42.8665 70.3361 44.5105 72.4132C44.8042 72.9323 45.3687 73.264 46.0012 73.2641C46.6337 73.2641 47.1992 72.9325 47.4929 72.4133C48.5797 71.0403 49.8254 69.5434 51.1557 67.9673H81.1176L82.946 71.3026H52.4664C51.9004 71.3026 51.3917 71.6359 51.1824 72.1441C50.9728 72.6521 51.1051 73.2324 51.5161 73.6084L59.2567 80.6938H51.2343L35.7178 66.49C35.3747 66.1761 34.8905 66.053 34.4322 66.1639C33.9743 66.2744 33.6063 66.6032 33.4565 67.0359L28.7284 80.6936L21.3346 80.6938ZM47.2144 80.6938H31.6434L35.3906 69.8702L47.2144 80.6938ZM87.3158 80.243C87.13 80.5421 86.8512 80.6938 86.4876 80.6938H63.2765L55.9356 73.9744H84.4107L87.3427 79.3224C87.5123 79.632 87.5033 79.9417 87.3158 80.243ZM63.4664 29.1091C63.4664 19.8009 55.6319 12.2282 46.0018 12.2282C36.3715 12.2282 28.537 19.8008 28.537 29.1091C28.537 38.4197 36.3715 45.9945 46.0018 45.9945C55.6319 45.9945 63.4664 38.4195 63.4664 29.1091ZM31.3014 29.1091C31.3014 21.2741 37.8959 14.9001 46.0019 14.9001C54.1078 14.9001 60.7023 21.2741 60.7023 29.1091C60.7023 36.9464 54.1078 43.3227 46.0019 43.3227C37.8959 43.3227 31.3014 36.9463 31.3014 29.1091Z" fill="#FFAA17" stroke="#FFAA17"/>
</svg>
