<svg width="85" height="62" viewBox="0 0 85 62" fill="none" xmlns="http://www.w3.org/2000/svg">
<path d="M48.1587 1.19232C47.277 1.19232 46.5625 1.71366 46.5625 2.35691C46.5625 3.00016 47.277 3.52149 48.1587 3.52149C65.8122 3.52149 80.174 13.9996 80.174 26.8782C80.174 27.5215 80.8893 28.0429 81.7703 28.0429C82.652 28.0429 83.3665 27.5215 83.3665 26.8782C83.3665 12.7154 67.5725 1.19232 48.1587 1.19232Z" fill="#FFAA17"/>
<path d="M72.1674 28.0432C73.0492 28.0432 73.7638 27.5214 73.7638 26.8786C73.7638 16.5779 62.2774 8.19794 48.1587 8.19794C47.277 8.19794 46.5625 8.71973 46.5625 9.36251C46.5625 10.0058 47.277 10.5271 48.1587 10.5271C60.5171 10.5271 70.5712 17.8622 70.5712 26.8786C70.5712 27.5214 71.2857 28.0432 72.1674 28.0432Z" fill="#FFAA17"/>
<path d="M60.9666 26.8788C60.9666 27.5216 61.6812 28.0433 62.5629 28.0433C63.4446 28.0433 64.1591 27.5216 64.1591 26.8788C64.1591 20.4421 56.9814 15.2056 48.1587 15.2056C47.277 15.2056 46.5625 15.7269 46.5625 16.3698C46.5625 17.013 47.277 17.5343 48.1587 17.5343C55.2212 17.5343 60.9666 21.7259 60.9666 26.8788Z" fill="#FFAA17"/>
<path d="M46.5625 23.3758C46.5625 24.0187 47.277 24.5399 48.1587 24.5399C49.9259 24.5399 51.3639 25.5891 51.3639 26.8787C51.3639 27.5214 52.0783 28.0433 52.9601 28.0433C53.8413 28.0433 54.5564 27.5214 54.5564 26.8787C54.5564 24.3048 51.6862 22.2112 48.1587 22.2112C47.277 22.2112 46.5625 22.7325 46.5625 23.3758Z" fill="#FFAA17"/>
<path d="M31.5541 39.0039C31.5541 39.6472 30.8394 40.1686 29.9575 40.1686C29.0757 40.1686 28.3608 39.6472 28.3608 39.0039C28.3608 38.3612 29.0757 37.8394 29.9575 37.8394C30.8394 37.8394 31.5541 38.3612 31.5541 39.0039Z" fill="#FFAA17"/>
<path d="M45.3785 59.4051C52.6474 62.0041 61.3922 60.9228 67.14 56.7293L70.4406 54.3214C72.2327 53.0154 72.2333 50.8995 70.4411 49.5926L57.6882 40.2895C55.8993 38.9826 52.9985 38.9807 51.2076 40.2892L45.789 44.2427C44.7276 45.017 43.0896 45.1749 41.8949 44.6185C39.9469 43.71 38.0519 42.7083 36.2628 41.6411C35.58 41.2339 34.5749 41.3076 34.0168 41.8053C33.4588 42.3034 33.5598 43.0372 34.2419 43.4439C36.127 44.5685 38.123 45.6239 40.1762 46.5811C42.6237 47.7215 45.9337 47.4308 48.0462 45.8895L53.4661 41.9355C54.008 41.5396 54.886 41.5387 55.4303 41.9359L68.1839 51.2394C68.7271 51.6361 68.7282 52.2775 68.1839 52.6738L64.8828 55.0825C60.0945 58.5758 52.8214 59.4724 46.7835 57.3139C24.664 49.4007 12.6295 36.8532 6.42883 27.7202C3.46258 23.3525 4.69411 18.0665 9.49362 14.5658L12.7224 12.2108C13.2636 11.815 14.1422 11.8136 14.686 12.2113L27.4408 21.516C27.9808 21.9096 27.9864 22.551 27.4396 22.9491L22.0209 26.9028C19.9083 28.4439 19.5098 30.8587 21.0731 32.6447C21.9941 33.6961 22.9868 34.7332 24.0243 35.7271C24.5581 36.239 25.5595 36.3377 26.2611 35.9483C26.9625 35.5589 27.0985 34.8283 26.5641 34.3161C25.5801 33.3731 24.6372 32.3886 23.763 31.391C23.0005 30.5189 23.2168 29.3239 24.2781 28.5496L29.6962 24.5967C31.4877 23.2916 31.4895 21.1749 29.6975 19.8689L16.9439 10.5649C15.1555 9.25792 12.2541 9.2561 10.4639 10.5644L7.23635 12.9191C1.46721 17.1266 -0.00687802 23.4904 3.56796 28.7543C9.98872 38.2106 22.4536 51.2039 45.3785 59.4051Z" fill="#FFAA17"/>
<path d="M48.1587 1.19232C47.277 1.19232 46.5625 1.71366 46.5625 2.35691C46.5625 3.00016 47.277 3.52149 48.1587 3.52149C65.8122 3.52149 80.1739 13.9996 80.1739 26.8782C80.1739 27.5215 80.8893 28.0429 81.7703 28.0429C82.652 28.0429 83.3665 27.5215 83.3665 26.8782C83.3665 12.7154 67.5725 1.19232 48.1587 1.19232Z" stroke="#FFAA17"/>
<path d="M72.1674 28.0432C73.0492 28.0432 73.7638 27.5214 73.7638 26.8786C73.7638 16.5779 62.2774 8.19794 48.1587 8.19794C47.277 8.19794 46.5625 8.71973 46.5625 9.36251C46.5625 10.0058 47.277 10.5271 48.1587 10.5271C60.5171 10.5271 70.5712 17.8622 70.5712 26.8786C70.5712 27.5214 71.2857 28.0432 72.1674 28.0432Z" stroke="#FFAA17"/>
<path d="M60.9666 26.8788C60.9666 27.5216 61.6812 28.0433 62.5629 28.0433C63.4446 28.0433 64.1591 27.5216 64.1591 26.8788C64.1591 20.4421 56.9814 15.2056 48.1587 15.2056C47.277 15.2056 46.5625 15.7269 46.5625 16.3698C46.5625 17.013 47.277 17.5343 48.1587 17.5343C55.2212 17.5343 60.9666 21.7259 60.9666 26.8788Z" stroke="#FFAA17"/>
<path d="M46.5625 23.3758C46.5625 24.0187 47.277 24.5399 48.1587 24.5399C49.9259 24.5399 51.3639 25.5891 51.3639 26.8787C51.3639 27.5214 52.0783 28.0433 52.9601 28.0433C53.8413 28.0433 54.5564 27.5214 54.5564 26.8787C54.5564 24.3048 51.6862 22.2112 48.1587 22.2112C47.277 22.2112 46.5625 22.7325 46.5625 23.3758Z" stroke="#FFAA17"/>
<path d="M31.5541 39.0039C31.5541 39.6472 30.8394 40.1686 29.9575 40.1686C29.0757 40.1686 28.3608 39.6472 28.3608 39.0039C28.3608 38.3612 29.0757 37.8394 29.9575 37.8394C30.8394 37.8394 31.5541 38.3612 31.5541 39.0039Z" stroke="#FFAA17"/>
<path d="M45.3785 59.4051C52.6474 62.0041 61.3922 60.9228 67.14 56.7293L70.4406 54.3214C72.2327 53.0154 72.2333 50.8995 70.4411 49.5926L57.6882 40.2895C55.8993 38.9826 52.9985 38.9807 51.2076 40.2892L45.789 44.2427C44.7276 45.017 43.0896 45.1749 41.8949 44.6185C39.9469 43.71 38.0519 42.7083 36.2628 41.6411C35.58 41.2339 34.5749 41.3076 34.0168 41.8053C33.4588 42.3034 33.5598 43.0372 34.2419 43.4439C36.127 44.5685 38.123 45.6239 40.1762 46.5811C42.6237 47.7215 45.9337 47.4308 48.0462 45.8895L53.4661 41.9355C54.008 41.5396 54.886 41.5387 55.4303 41.9359L68.1839 51.2394C68.7271 51.6361 68.7282 52.2775 68.1839 52.6738L64.8828 55.0825C60.0945 58.5758 52.8214 59.4724 46.7835 57.3139C24.664 49.4007 12.6295 36.8532 6.42883 27.7202C3.46258 23.3525 4.69411 18.0665 9.49362 14.5658L12.7224 12.2108C13.2636 11.815 14.1422 11.8136 14.686 12.2113L27.4408 21.516C27.9808 21.9096 27.9864 22.551 27.4396 22.9491L22.0209 26.9028C19.9083 28.4439 19.5098 30.8587 21.0731 32.6447C21.9941 33.6961 22.9868 34.7332 24.0243 35.7271C24.5581 36.239 25.5595 36.3377 26.2611 35.9483C26.9625 35.5589 27.0985 34.8283 26.5641 34.3161C25.5801 33.3731 24.6372 32.3886 23.763 31.391C23.0005 30.5189 23.2168 29.3239 24.2781 28.5496L29.6962 24.5967C31.4877 23.2916 31.4895 21.1749 29.6975 19.8689L16.9439 10.5649C15.1555 9.25792 12.2541 9.2561 10.4639 10.5644L7.23635 12.9191C1.46721 17.1266 -0.00687798 23.4904 3.56796 28.7543C9.98872 38.2106 22.4536 51.2039 45.3785 59.4051Z" stroke="#FFAA17"/>
</svg>
