<svg width="35" height="30" viewBox="0 0 35 30" fill="none" xmlns="http://www.w3.org/2000/svg">
<path d="M16.2292 24H6.17524C5.79016 24 5.4751 24.25 5.4751 24.5556V24.8778C5.4751 25.1833 5.79016 25.4333 6.17524 25.4333H16.2222C16.6073 25.4333 16.9224 25.1833 16.9224 24.8778V24.5556C16.9294 24.2444 16.6143 24 16.2292 24Z" fill="#FFAA17"/>
<path d="M20.9692 17.5722C21.2002 17.2667 21.4033 16.9333 21.5713 16.5889C21.5783 16.5722 21.5853 16.5611 21.5993 16.5444C21.8094 16.1389 21.9774 15.7278 22.1034 15.3055C22.1104 15.2778 22.1174 15.25 22.1244 15.2278C22.2365 14.8333 22.3205 14.4333 22.3625 14.0277C22.3975 13.7833 22.4115 13.5333 22.4115 13.25C22.4115 13.0166 22.3975 12.7833 22.3695 12.5555C22.1804 10.5888 21.1302 8.71104 19.4219 7.27214C18.4557 6.43324 17.2515 5.74435 15.9422 5.26656C15.9142 5.25545 15.8862 5.24434 15.8582 5.23323C14.3949 4.711 12.8336 4.44434 11.2022 4.44434C5.02701 4.44434 0 8.39992 0 13.2555C0 16.8055 2.68854 20 6.84737 21.3889C7.10642 21.4778 7.27446 21.6778 7.27446 21.9V22.8889H7.86257V20.2167L5.35607 17.5889C5.26505 17.4944 5.21604 17.3722 5.21604 17.2555V13.1888C4.44589 12.9611 3.89278 12.3833 3.89278 11.6944C3.89278 10.8166 4.80296 10.0944 5.91618 10.0944C7.02941 10.0944 7.93959 10.8111 7.93959 11.6944C7.93959 12.3777 7.38648 12.9611 6.61633 13.1888V17.0667L9.12283 19.6945C9.21385 19.7889 9.26285 19.9111 9.26285 20.0278V22.8834H10.5021V17.8944C9.36087 17.65 8.52071 16.8333 8.52071 15.8611C8.52071 14.6944 9.72495 13.7444 11.2022 13.7444C12.6795 13.7444 13.8838 14.6944 13.8838 15.8611C13.8838 16.8389 13.0366 17.65 11.9024 17.8944V22.8834H13.1416V20.0278C13.1416 19.9056 13.1906 19.7889 13.2817 19.6945L15.7882 17.0667V13.1888C15.018 12.9611 14.4649 12.3833 14.4649 11.6944C14.4649 10.8166 15.3751 10.0944 16.4883 10.0944C17.6015 10.0944 18.5117 10.8111 18.5117 11.6944C18.5117 12.3777 17.9586 12.9611 17.1884 13.1888V17.2555C17.1884 17.3778 17.1394 17.4944 17.0484 17.5889L14.5419 20.2167V22.8889H15.13V21.9C15.13 21.6778 15.2981 21.4722 15.5571 21.3889C16.7894 20.9778 17.9166 20.4 18.9038 19.6611C19.7019 19.0611 20.3881 18.3722 20.9272 17.6278C20.9412 17.6111 20.9552 17.5889 20.9692 17.5722Z" fill="#FFAA17"/>
<path d="M9.11581 29.5166C9.11581 29.7833 9.39587 30 9.73894 30H12.6655C13.0086 30 13.2886 29.7833 13.2886 29.5166V29.0889H9.11581V29.5166Z" fill="#FFAA17"/>
<path d="M11.2022 16.8666C11.9099 16.8666 12.4835 16.4164 12.4835 15.861C12.4835 15.3057 11.9099 14.8555 11.2022 14.8555C10.4946 14.8555 9.92099 15.3057 9.92099 15.861C9.92099 16.4164 10.4946 16.8666 11.2022 16.8666Z" fill="#FFAA17"/>
<path d="M16.2292 26.5449H6.17524C5.79016 26.5449 5.4751 26.7949 5.4751 27.1005V27.4227C5.4751 27.7283 5.79016 27.9783 6.17524 27.9783H16.2222C16.6073 27.9783 16.9224 27.7283 16.9224 27.4227V27.1005C16.9294 26.7949 16.6143 26.5449 16.2292 26.5449Z" fill="#FFAA17"/>
<path d="M16.4949 12.1778H16.5019C16.8377 12.1722 17.1175 11.9611 17.1175 11.6945C17.1175 11.4278 16.8377 11.2056 16.4949 11.2056C16.152 11.2056 15.8722 11.4222 15.8722 11.6945C15.8722 11.9611 16.145 12.1778 16.4879 12.1778C16.4879 12.1834 16.4879 12.1778 16.4949 12.1778Z" fill="#FFAA17"/>
<path d="M29.2659 17.5449C29.1398 17.0782 28.9088 16.6282 28.5727 16.2171C28.4117 16.0171 28.4257 15.7615 28.6077 15.5726L28.7407 15.4393L28.4677 15.2671C27.8726 15.5449 27.2354 15.7504 26.5843 15.9115C27.5785 16.4449 28.2086 17.3393 28.2086 18.3282C28.2086 19.9449 26.5493 21.2616 24.5119 21.2616C22.9576 21.2616 21.6343 20.4949 21.0882 19.4171C20.8292 19.6782 20.5491 19.9227 20.2551 20.1616C20.3181 20.256 20.3741 20.356 20.4511 20.4449C20.6121 20.6449 20.5981 20.9005 20.4161 21.0838L19.4009 22.1171L19.7369 22.3838L21.0392 21.5782C21.2773 21.4338 21.5993 21.4227 21.8514 21.5505C22.3695 21.8171 22.9296 22.0005 23.5247 22.1005C23.8188 22.1505 24.0358 22.3394 24.0708 22.5727L24.2809 23.8783H24.757L24.967 22.5727C25.002 22.3394 25.226 22.1505 25.5131 22.1005C26.1012 22.0005 26.6683 21.8171 27.1864 21.5505C27.4385 21.4227 27.7606 21.4338 27.9986 21.5782L29.3009 22.3838L29.6369 22.1171L28.6217 21.0838C28.4397 20.9005 28.4257 20.6394 28.5867 20.4394C28.9228 20.0282 29.1538 19.5838 29.2799 19.1116C29.3429 18.8782 29.5809 18.706 29.875 18.6782L31.5203 18.5116V18.1338L29.875 17.9671C29.5669 17.9504 29.3289 17.7782 29.2659 17.5449Z" fill="#FFAA17"/>
<path d="M31.5343 10.1723C31.5973 9.93896 31.8354 9.76118 32.1294 9.73341L35 9.45007V8.3334L32.1294 8.05006C31.8354 8.02228 31.5903 7.8445 31.5343 7.61117C31.3313 6.8445 30.9532 6.11671 30.4071 5.46671C30.2391 5.26671 30.2531 5.00559 30.4421 4.82226L32.2275 3.00558L31.2333 2.21668L28.9438 3.63336C28.7058 3.77781 28.3767 3.78892 28.1316 3.66114C27.3055 3.2278 26.3953 2.9278 25.4291 2.76669C25.135 2.71669 24.911 2.5278 24.876 2.29446L24.5119 0H23.1046L22.7476 2.2778C22.7126 2.51113 22.4885 2.70558 22.1944 2.75002C21.2283 2.91113 20.3111 3.21114 19.4919 3.64447C19.2399 3.77781 18.9108 3.7667 18.6797 3.61669L16.3903 2.20002L15.3961 2.98891L16.7054 4.32225C17.8676 4.76115 18.9388 5.3556 19.87 6.0556C20.8642 5.17226 22.2855 4.65559 23.8188 4.65559C26.7594 4.65559 29.1468 6.55005 29.1468 8.8834C29.1468 11.2168 26.7454 13.1168 23.8048 13.1168H23.7978C23.7978 13.1612 23.8048 13.2112 23.8048 13.2557C23.8048 13.5668 23.7908 13.8501 23.7558 14.1223V14.1279V14.1334C23.6577 15.0501 23.3847 15.9612 22.9576 16.839L23.0976 17.7779H24.5049L24.862 15.4946C24.897 15.2612 25.121 15.0723 25.4151 15.0223C26.3813 14.8612 27.2985 14.5612 28.1176 14.1279C28.3697 13.9946 28.6988 14.0057 28.9368 14.1557L31.2263 15.5723L32.2205 14.7834L30.4351 12.9668C30.2531 12.7779 30.2391 12.5168 30.4001 12.3223C30.9532 11.6612 31.3313 10.939 31.5343 10.1723Z" fill="#FFAA17"/>
<path d="M5.28604 11.6945C5.28604 11.9611 5.55891 12.1722 5.90174 12.1778H5.90873H5.91573C6.25156 12.1722 6.53142 11.9611 6.53142 11.6945C6.53142 11.4278 6.25156 11.2056 5.90873 11.2056C5.5659 11.2111 5.28604 11.4278 5.28604 11.6945Z" fill="#FFAA17"/>
<path d="M24.5049 20.1559C25.7722 20.1559 26.8014 19.3393 26.8014 18.3337C26.8014 17.8059 26.5143 17.3281 26.0452 16.9893L25.8212 18.4004C25.7792 18.6782 25.4781 18.8893 25.128 18.8893H22.4815C22.4255 18.8893 22.3695 18.8782 22.3205 18.867C22.6075 19.6115 23.4757 20.1559 24.5049 20.1559Z" fill="#FFAA17"/>
<path d="M23.8048 12.0054C25.9682 12.0054 27.7326 10.6053 27.7326 8.88866C27.7326 7.17198 25.9682 5.77197 23.8048 5.77197C22.6425 5.77197 21.5573 6.17753 20.8222 6.86643C22.3835 8.31644 23.3847 10.1109 23.6927 11.9942C23.7278 11.9998 23.7628 12.0054 23.8048 12.0054Z" fill="#FFAA17"/>
</svg>
