<svg width="34" height="29" viewBox="0 0 34 29" fill="none" xmlns="http://www.w3.org/2000/svg">
<path d="M10.5588 18.2216L1.27286 21.611C0.495478 21.895 0 22.4689 0 23.0912V28.3354C0 28.7039 0.418593 29 0.939698 29H14.6764L15.1291 22.2333C10.8435 18.4715 10.4895 18.1609 10.5588 18.2216Z" fill="#FFAA17"/>
<path d="M32.7271 21.6111L23.4412 18.2217C23.3723 18.2822 18.5666 22.5004 18.8708 22.2333L19.3236 29H33.0603C33.5814 29 34 28.704 34 28.3354V23.0913C34 22.469 33.5045 21.895 32.7271 21.6111Z" fill="#FFAA17"/>
<path d="M22.4246 13.2675C21.3423 14.5339 18.1443 16.7269 16.2482 16.1131C12.5407 14.9108 10.9774 12.8264 10.3537 11.0381C10.1402 11.165 9.87534 11.2314 9.59344 11.2314H9.55927C10.8401 14.9121 15.2601 16.8441 17.0427 16.8441C18.4783 16.8441 21.9644 15.4176 23.6462 12.9231C23.2703 13.0802 22.8603 13.195 22.4246 13.2675Z" fill="#FFAA17"/>
<path d="M10.6527 7.31635C11.0805 6.35016 12.2746 4.71565 13.6256 5.05676C15.6246 5.54614 18.4522 5.54614 20.4512 5.05676C21.7687 4.73166 22.9568 6.27887 23.3985 7.26197C23.5252 7.12761 23.6985 7.04115 23.8939 6.97197C23.8875 6.91144 24.516 4.91581 22.2025 3.0751C20.8869 2.04197 19.0075 1.44385 17.0342 1.44385C15.0693 1.44385 13.1899 2.04197 11.8744 3.08114C9.5814 4.88548 10.2094 6.94176 10.2 7.00218C10.3835 7.08012 10.5367 7.16144 10.6527 7.31635Z" fill="#FFAA17"/>
<path d="M17 19.9976L16.0603 21.1153L15.5306 28.9996H18.4693L17.9397 21.1153L17 19.9976Z" fill="#FFAA17"/>
<path d="M16.9993 18.8075L18.9978 21.1983L22.6659 17.9375L21.4233 16.3247L16.9993 18.8075Z" fill="#FFAA17"/>
<path d="M11.3328 17.9375L15.0008 21.1983L16.9993 18.8075L12.5753 16.3247L11.3328 17.9375Z" fill="#FFAA17"/>
<path d="M8.86733 10.6273C9.17179 10.5928 9.98642 10.7598 9.98642 10.3494V7.77563C9.98642 7.61854 9.80702 7.49771 9.59346 7.49771H9.45677L9.32009 6.96604C8.78455 3.72203 12.3692 0.839792 17.0342 0.839792C21.7314 0.839792 25.2837 3.7439 24.7653 6.94187L24.6286 7.49771H24.4065C24.193 7.49771 24.0136 7.61854 24.0136 7.77563V10.3494C24.0136 10.4642 24.1246 10.5669 24.2698 10.6031C23.9452 11.461 22.8858 12.1015 21.6044 12.1921V12.0592C21.6044 11.9262 21.4507 11.8175 21.2627 11.8175H19.9386C19.4175 11.8175 19.0074 12.1196 19.0074 12.4821C19.0074 12.8446 19.4175 13.1346 19.9386 13.1346H21.2627C21.4507 13.1346 21.6044 13.0319 21.6044 12.8929V12.7479C23.313 12.6633 24.7225 11.7812 25.0813 10.6273H25.1326C25.6195 10.6273 26.0125 10.3433 26.0125 9.99896V8.12604C26.0125 7.95688 25.927 7.80583 25.7733 7.69708L25.9356 7.06271C26.5439 3.30509 22.3982 0 17.0342 0C11.6892 0 7.51869 3.30093 8.1412 7.08687L8.28642 7.65479C8.09848 7.76958 7.98743 7.93875 7.98743 8.12604V9.99896C7.98743 10.3433 8.38039 10.6273 8.86733 10.6273Z" fill="#FFAA17"/>
</svg>
