<svg width="44" height="52" viewBox="0 0 44 52" fill="none" xmlns="http://www.w3.org/2000/svg">
<path fill-rule="evenodd" clip-rule="evenodd" d="M8.70301 4.17702C8.22837 4.17702 7.84493 3.77624 7.84493 3.28012C7.84493 2.78401 8.22837 2.38323 8.70301 2.38323H20.9608C21.4354 2.38323 21.8188 2.78401 21.8188 3.28012C21.8188 3.77624 21.4354 4.17702 20.9608 4.17702H8.70301ZM29.6657 27.6477V2.29638C29.6657 1.03555 28.675 0.00216627 27.4708 0.00216627L2.19491 0C0.988655 0 0 1.03555 0 2.29421V49.7058C0 50.9666 0.990724 52 2.19491 52H27.4687C28.6749 52 29.6636 50.9645 29.6636 49.7058V45.4249L29.0874 45.7564C28.7454 45.9536 28.3309 45.8799 28.0697 45.6048L26.1339 43.5814C25.8437 43.2802 25.8044 42.8145 26.0158 42.4678L27.0334 40.5419L26.6003 39.45L24.5277 38.8239C24.1525 38.7112 23.91 38.3538 23.91 37.966L23.9079 35.1041C23.9079 34.6687 24.2043 34.3047 24.6002 34.2246L26.6003 33.6202L27.0334 32.5283L25.9909 30.5525C25.8023 30.1951 25.8728 29.7618 26.136 29.4888L28.0718 27.4654C28.362 27.1621 28.8055 27.121 29.1372 27.3419L29.6657 27.6477ZM30.9238 36.5362C30.9238 34.2918 32.6648 32.4721 34.812 32.4721C36.9593 32.4721 38.7003 34.2918 38.7003 36.5362C38.7003 38.7806 36.9593 40.6004 34.812 40.6004C32.6648 40.6004 30.9238 38.7806 30.9238 36.5362ZM16.0173 11.7634C16.1686 11.2954 16.6556 11.0441 17.1034 11.2023C17.5511 11.3605 17.7915 11.8695 17.6402 12.3375L13.6483 24.5343C13.497 25.0022 13.0099 25.2535 12.5622 25.0953C12.1145 24.9372 11.8741 24.4281 12.0254 23.9601L16.0173 11.7634ZM21.4002 24.1337C21.0416 24.4544 20.5006 24.411 20.1939 24.0362C19.8872 23.6614 19.9286 23.096 20.2872 22.7754L25.4791 18.1502L20.2872 13.5249C19.9286 13.2043 19.8872 12.6388 20.1939 12.2641C20.5007 11.8893 21.0416 11.846 21.4002 12.1666L27.45 17.5696C27.7567 17.9444 27.7153 18.5098 27.3567 18.8304L21.4002 24.1337ZM9.37691 22.7754C9.73548 23.096 9.77693 23.6615 9.47018 24.0362C9.16343 24.411 8.62245 24.4565 8.26393 24.1337L2.30908 18.8282C1.90285 18.4664 1.91735 17.8143 2.31944 17.459L8.26368 12.1643C8.62224 11.8437 9.1632 11.887 9.46993 12.2618C9.77668 12.6366 9.73523 13.202 9.37666 13.5226L4.1847 18.1479L9.37691 22.7754ZM6.76745 37.8771C7.24209 37.8771 7.62553 38.2779 7.62553 38.774C7.62553 39.2701 7.24209 39.6709 6.76745 39.6709H5.32907C4.85444 39.6709 4.47099 39.2701 4.47099 38.774C4.47099 38.2779 4.85443 37.8771 5.32907 37.8771H6.76745ZM19.6301 37.8771C20.1047 37.8771 20.4882 38.2779 20.4882 38.774C20.4882 39.2701 20.1047 39.6709 19.6301 39.6709H9.91547C9.44083 39.6709 9.05739 39.2701 9.05739 38.774C9.05739 38.2779 9.44083 37.8771 9.91547 37.8771H19.6301ZM6.76745 33.2649C7.24209 33.2649 7.62553 33.6657 7.62553 34.1618C7.62553 34.6579 7.24209 35.0587 6.76745 35.0587H5.32907C4.85444 35.0587 4.47099 34.6579 4.47099 34.1618C4.47099 33.6657 4.85443 33.2649 5.32907 33.2649H6.76745ZM19.6301 33.2649C20.1047 33.2649 20.4882 33.6657 20.4882 34.1618C20.4882 34.6579 20.1047 35.0587 19.6301 35.0587H9.91547C9.44083 35.0587 9.05739 34.6579 9.05739 34.1618C9.05739 33.6657 9.44083 33.2649 9.91547 33.2649H19.6301ZM30.0637 43.15L28.8305 43.8628L27.8045 42.7904L28.76 40.9837C28.9155 40.689 28.8947 40.3424 28.7351 40.076C28.4927 39.647 28.2377 38.9711 28.1092 38.488C28.0242 38.1652 27.7817 37.9355 27.4915 37.8597L25.6283 37.2965V35.7756L27.5226 35.2037C27.819 35.1149 28.0325 34.8723 28.1092 34.5841C28.2564 34.0317 28.4823 33.462 28.7538 32.9615C28.9051 32.682 28.8968 32.3527 28.76 32.0906L27.8066 30.2838L28.8325 29.2115L30.159 29.9762C30.5611 30.1907 30.8948 30.5113 31.4295 30.182C31.8399 29.9285 32.4866 29.6621 32.9488 29.5277C33.2576 29.4389 33.4773 29.1855 33.5498 28.8821L34.0887 26.9346H35.5437L36.0908 28.9146C36.1758 29.2244 36.4079 29.4476 36.6836 29.5277C37.2121 29.6816 37.7572 29.9177 38.236 30.2015C38.5034 30.3596 38.8185 30.351 39.0692 30.208L40.7978 29.2114L41.8237 30.2838L40.8682 32.0906C40.7128 32.3852 40.7335 32.7318 40.8931 32.9983C41.1356 33.4272 41.3905 34.1031 41.5191 34.5863C41.604 34.9091 41.8465 35.1387 42.1367 35.2145L44 35.7778V37.2986L42.1056 37.8705C41.8092 37.9593 41.5958 38.2019 41.5191 38.4901C41.3719 39.0425 41.146 39.6123 40.8745 40.1127C40.7232 40.3922 40.7315 40.7215 40.8683 40.9836L41.8217 42.7904L40.7957 43.8628L39.0672 42.864C38.7853 42.7016 38.4537 42.7232 38.1987 42.89C37.7884 43.1435 37.1417 43.41 36.6795 43.5443C36.3707 43.6331 36.151 43.8866 36.0784 44.1899L35.5396 46.1375H34.0846L33.5374 44.1574C33.4525 43.8476 33.2203 43.6245 32.9447 43.5443C32.4161 43.3905 31.871 43.1543 31.3922 42.8706C30.8907 42.5738 30.4948 42.9009 30.0637 43.15ZM12.9685 46.2957H16.693C17.5531 46.2957 18.2558 47.0301 18.2558 47.9291C18.2558 48.8282 17.5531 49.5626 16.693 49.5626H12.9685C12.1084 49.5626 11.4057 48.8282 11.4057 47.9291C11.4057 47.0322 12.1104 46.2957 12.9685 46.2957Z" fill="#FFAA17"/>
</svg>
