<svg width="28" height="22" viewBox="0 0 28 22" fill="none" xmlns="http://www.w3.org/2000/svg">
<path d="M27.418 4.91759V2.17025C27.418 1.21742 26.4668 0.453125 25.3224 0.453125H2.6774C1.53295 0.453125 0.582031 1.21742 0.582031 2.17025V16.9452C0.582031 17.8981 1.53295 18.6875 2.6774 18.6875H11.4584C11.5091 18.6875 11.5391 18.7151 11.5977 18.735V21.2765C11.6015 21.3511 11.6422 21.4215 11.7108 21.4722C11.7794 21.5228 11.8703 21.5497 11.9636 21.5469H16.0363C16.1296 21.5497 16.2205 21.5228 16.2891 21.4722C16.3577 21.4215 16.3984 21.3511 16.4023 21.2765V18.7471C16.4609 18.7234 16.5071 18.6875 16.5656 18.6875H25.3224C26.4668 18.6875 27.418 17.8981 27.418 16.9453V4.925C27.418 4.92378 27.418 4.92256 27.418 4.92134C27.418 4.92012 27.418 4.91881 27.418 4.91759ZM2.6774 1.01562H25.3224C26.079 1.01562 26.7148 1.52759 26.7148 2.17025V4.625H1.28516V2.17025C1.28516 1.52759 1.92072 1.01562 2.6774 1.01562ZM15.9012 18.3112C15.8398 18.3336 15.788 18.3699 15.7521 18.4156C15.7161 18.4613 15.6978 18.5144 15.6992 18.5684V19.0625H12.3008V18.5537C12.3022 18.4991 12.2834 18.4454 12.2467 18.3994C12.21 18.3533 12.157 18.317 12.0945 18.2951C10.4609 17.737 9.4127 16.4844 9.41885 15.1035C9.42277 14.2215 9.86879 13.3749 10.6715 12.7197C11.4772 12.0618 12.5607 11.6679 13.7101 11.615C14.348 11.5833 14.9872 11.6557 15.5889 11.8279C16.1906 12 16.7423 12.2683 17.2104 12.6163C18.0917 13.2812 18.581 14.1689 18.581 15.1159C18.581 16.4797 17.5314 17.7339 15.9012 18.3112ZM12.3008 20.9844V19.625H15.6992V20.9844H12.3008ZM25.3224 18.125H17.5684C18.6396 17.3281 19.2805 16.2734 19.2805 15.123C19.2804 14.5763 19.1393 14.0356 18.8662 13.5345C18.593 13.0333 18.1936 12.5827 17.6929 12.2106C17.1554 11.8097 16.5215 11.5005 15.8298 11.3019C15.1381 11.1033 14.4031 11.0194 13.6696 11.0553C12.3461 11.116 11.0986 11.5694 10.1708 12.3269C9.68944 12.7117 9.31235 13.1718 9.06312 13.6784C8.81389 14.185 8.69786 14.7272 8.72229 15.2713C8.74671 15.8154 8.91106 16.3496 9.20507 16.8406C9.49908 17.3316 9.91645 17.7688 10.4311 18.125H2.6774C1.92072 18.125 1.28516 17.588 1.28516 16.9453V5.1875H26.7148V16.9453C26.7148 17.588 26.079 18.125 25.3224 18.125Z" fill="black"/>
</svg>
