<svg width="30" height="30" viewBox="0 0 30 30" fill="none" xmlns="http://www.w3.org/2000/svg">
<path d="M15.1462 10.3521C16.602 10.3521 17.7873 8.93488 17.7873 7.19034C17.7873 5.44757 16.602 4.02861 15.1462 4.02861C13.6904 4.02861 12.5051 5.44757 12.5051 7.19034C12.5051 8.93311 13.689 10.3521 15.1462 10.3521ZM15.1462 4.74878C16.2709 4.74878 17.1872 5.84398 17.1872 7.19216C17.1872 8.53861 16.2724 9.63553 15.1462 9.63553C14.0215 9.63553 13.1052 8.54033 13.1052 7.19216C13.1052 5.84571 14.02 4.74878 15.1462 4.74878ZM29.7025 1.38535L29.0418 0.939486C28.9132 0.852789 28.7581 0.833326 28.6044 0.886406C28.3989 0.957178 28.2112 1.14649 28.0915 1.40833L27.7472 2.15848C27.7117 2.15494 27.6762 2.15671 27.6422 2.1691C27.5654 2.19564 27.5003 2.25756 27.4619 2.34249L26.8973 3.57036C26.8959 3.5739 26.8959 3.57921 26.8944 3.58451L25.4032 6.83294H21.1554V6.71794C21.1554 6.18184 20.7904 5.74484 20.3426 5.74484H19.5445C19.444 5.30606 19.2992 4.88852 19.1115 4.49396L19.676 3.81809C19.8298 3.63408 19.914 3.38992 19.914 3.12985C19.914 2.86978 19.8298 2.62559 19.676 2.44161L19.1159 1.77103C18.7996 1.3924 18.2838 1.3924 17.9675 1.77103L17.403 2.44691C17.0734 2.22221 16.7231 2.04705 16.3581 1.92852V0.973093C16.3581 0.436995 15.993 0 15.5452 0H14.753C14.3052 0 13.9402 0.437013 13.9402 0.973093V1.92852C13.5751 2.04883 13.2249 2.22222 12.8953 2.44691L12.3307 1.77103C12.0144 1.3924 11.4987 1.3924 11.1824 1.77103L10.6222 2.44161C10.4685 2.62562 10.3843 2.86978 10.3843 3.12985C10.3843 3.38992 10.4685 3.63411 10.6222 3.81809L11.1868 4.49396C10.9991 4.88851 10.8543 5.30785 10.7538 5.74484H9.95568C9.50786 5.74484 9.14283 6.18186 9.14283 6.71794V6.83294H3.51488V3.72606C3.51488 3.5279 3.38039 3.36689 3.21486 3.36689C1.45319 3.36689 0.0195825 5.08312 0.0195825 7.19209V26.5552C-0.00554221 26.8206 -0.00849806 27.0931 0.0225383 27.3744C0.165899 28.7244 1.33938 29.8673 2.603 29.9876C2.60891 29.9876 2.61186 29.9912 2.61778 29.9912H2.66802C2.71827 29.9947 2.76853 30 2.82025 30C2.88085 30 2.94144 29.9965 3.00204 29.9912H25.7961C25.9616 29.9912 26.0961 29.8301 26.0961 29.632V11.1553L28.9426 4.95545C28.9441 4.95192 28.9485 4.94838 28.95 4.94484L29.5145 3.71697C29.5633 3.61081 29.5574 3.48873 29.516 3.38788L29.8766 2.6023C30.0924 2.13166 30.0185 1.59732 29.7067 1.38857L29.7025 1.38535ZM28.4181 4.59659L22.5639 17.3495C22.3083 16.9815 21.9683 16.7639 21.556 16.6984L27.4249 3.91515C27.4264 3.91161 27.4264 3.90984 27.4279 3.9063L27.4368 3.88507L27.7057 3.29942L27.8417 3.00395L28.8437 3.67982L28.7048 3.98237L28.4358 4.56802C28.4314 4.5751 28.4284 4.58218 28.4255 4.58925C28.424 4.59102 28.4225 4.59279 28.4211 4.59456L28.4181 4.59659ZM21.2738 17.3939C21.7112 17.3886 22.0187 17.5938 22.2241 18.022L20.3131 20.8759L21.2738 17.3921V17.3939ZM28.6175 1.75169C28.6693 1.63845 28.7358 1.58891 28.7653 1.57653L29.3919 1.99938C29.4008 2.03477 29.4023 2.13385 29.3476 2.25239L29.0166 2.97247L28.285 2.47705L28.619 1.75162L28.6175 1.75169ZM9.73978 6.71634C9.73978 6.57657 9.83437 6.46157 9.9526 6.46157H10.9813C11.0197 6.46157 11.0552 6.45095 11.0891 6.43503C11.101 6.42972 11.1098 6.42087 11.1217 6.41379C11.1424 6.39964 11.163 6.38549 11.1808 6.36602C11.1911 6.35541 11.2 6.34125 11.2089 6.32887C11.2236 6.30941 11.2355 6.28817 11.2458 6.26341C11.2532 6.24748 11.2576 6.22979 11.2635 6.2121C11.2665 6.19971 11.2724 6.1891 11.2754 6.17671C11.3759 5.62467 11.5562 5.10275 11.8119 4.62503C11.8178 4.61442 11.8178 4.6038 11.8222 4.59319C11.8311 4.57196 11.8385 4.54895 11.8444 4.52595C11.8503 4.50472 11.8532 4.48349 11.8547 4.46049C11.8562 4.43749 11.8562 4.41626 11.8532 4.39326C11.8518 4.37025 11.8488 4.34902 11.8429 4.32602C11.837 4.30479 11.8296 4.28533 11.8207 4.2641C11.8119 4.24286 11.8 4.2234 11.7867 4.20394C11.7808 4.19509 11.7779 4.18448 11.772 4.17563L11.0448 3.30513C11.0049 3.25736 10.9827 3.19367 10.9827 3.12466C10.9827 3.05566 11.0049 2.99196 11.0448 2.94419L11.605 2.27362C11.6862 2.17631 11.8237 2.17631 11.905 2.27362L12.6321 3.14412C12.6469 3.16181 12.6646 3.17066 12.6809 3.18304C12.6927 3.19189 12.7031 3.20428 12.7164 3.21135C12.7578 3.23435 12.8006 3.25028 12.845 3.25028C12.8789 3.25028 12.9129 3.24143 12.9454 3.22728C12.9558 3.22374 12.9647 3.21666 12.9735 3.21135C12.9854 3.20428 12.9972 3.20074 13.0075 3.19366C13.4066 2.88757 13.8425 2.66997 14.3037 2.55139C14.3125 2.54962 14.3199 2.54078 14.3288 2.53724C14.348 2.53016 14.3657 2.51955 14.3835 2.50893C14.3997 2.49831 14.416 2.48593 14.4308 2.47177C14.4456 2.45762 14.4574 2.43993 14.4692 2.42223C14.481 2.40454 14.4914 2.38685 14.5017 2.36561C14.5106 2.34615 14.5165 2.32492 14.5224 2.30369C14.5283 2.28069 14.5327 2.25769 14.5342 2.23292C14.5357 2.2223 14.5401 2.21169 14.5401 2.20107V0.969622C14.5401 0.831616 14.6377 0.714844 14.753 0.714844H15.5451C15.6619 0.714844 15.758 0.82985 15.758 0.969622V2.20107C15.758 2.21346 15.7624 2.2223 15.7639 2.23292C15.7654 2.25769 15.7698 2.28069 15.7757 2.30369C15.7816 2.32492 15.7875 2.34615 15.7964 2.36561C15.8053 2.38685 15.8156 2.40454 15.8289 2.42223C15.8407 2.43992 15.854 2.45585 15.8673 2.47177C15.8821 2.48593 15.8969 2.49831 15.9146 2.50893C15.9324 2.52132 15.9501 2.53016 15.9693 2.53724C15.9782 2.54078 15.9856 2.54785 15.9944 2.55139C16.4556 2.6717 16.8915 2.88756 17.2906 3.19366C17.3009 3.20251 17.3128 3.20604 17.3246 3.21135C17.3334 3.21666 17.3423 3.22197 17.3527 3.22728C17.3852 3.24143 17.4192 3.25028 17.4532 3.25028C17.4975 3.25028 17.5404 3.23612 17.5817 3.21135C17.595 3.20428 17.6054 3.19366 17.6172 3.18304C17.6335 3.17066 17.6512 3.16181 17.666 3.14412L18.3931 2.27362C18.4744 2.17631 18.6119 2.17631 18.6932 2.27362L19.2533 2.94419C19.2932 2.99196 19.3154 3.05566 19.3154 3.12466C19.3154 3.19367 19.2932 3.25736 19.2533 3.30513L18.5261 4.17563C18.5188 4.18448 18.5173 4.19509 18.5114 4.20394C18.4981 4.2234 18.4877 4.24287 18.4774 4.2641C18.4685 4.28356 18.4611 4.30479 18.4552 4.32602C18.4493 4.34725 18.4463 4.37025 18.4449 4.39326C18.4434 4.41626 18.4419 4.43749 18.4434 4.46049C18.4449 4.48349 18.4493 4.50472 18.4537 4.52595C18.4596 4.54895 18.4656 4.57195 18.4759 4.59319C18.4803 4.6038 18.4803 4.61442 18.4862 4.62503C18.7419 5.10275 18.9237 5.62467 19.0227 6.17671C19.0257 6.1891 19.0316 6.19971 19.0346 6.2121C19.039 6.22979 19.0449 6.24571 19.0523 6.26341C19.0627 6.28817 19.0745 6.30764 19.0893 6.32887C19.0981 6.34125 19.107 6.35541 19.1173 6.36602C19.1351 6.38549 19.1558 6.39964 19.1765 6.41379C19.1868 6.42087 19.1971 6.42972 19.209 6.43503C19.243 6.45095 19.2799 6.46157 19.3169 6.46157H20.3455C20.4623 6.46157 20.5583 6.5748 20.5583 6.71634V7.6647C20.5583 7.80448 20.4637 7.91948 20.3455 7.91948H19.3169C19.308 7.91948 19.2991 7.92479 19.2903 7.92656C19.2696 7.92833 19.2503 7.93364 19.2297 7.94071C19.2119 7.94779 19.1957 7.95487 19.1794 7.96548C19.1617 7.9761 19.1469 7.99025 19.1306 8.00441C19.1159 8.01856 19.1026 8.03272 19.0907 8.05041C19.0789 8.0681 19.0686 8.0858 19.0597 8.10703C19.0493 8.12826 19.042 8.14949 19.036 8.17249C19.0331 8.18311 19.0272 8.19195 19.0242 8.20257C18.9237 8.75461 18.7434 9.27653 18.4877 9.75425C18.4818 9.76486 18.4818 9.77548 18.4774 9.78609C18.4685 9.80732 18.4611 9.83032 18.4552 9.85333C18.4493 9.87456 18.4463 9.89579 18.4449 9.91879C18.4434 9.94179 18.4434 9.96302 18.4463 9.98602C18.4478 10.009 18.4508 10.0303 18.4567 10.0533C18.4626 10.0745 18.47 10.094 18.4789 10.1152C18.4877 10.1364 18.4995 10.1559 18.5128 10.1753C18.5188 10.1842 18.5217 10.1948 18.5276 10.2036L19.2548 11.0741C19.2947 11.1219 19.3168 11.1856 19.3168 11.2546C19.3168 11.3236 19.2947 11.3873 19.2548 11.4351L18.6946 12.1057C18.6133 12.203 18.4759 12.203 18.3946 12.1057L17.6675 11.2352C17.6601 11.2263 17.6512 11.2245 17.6438 11.2175C17.6276 11.2015 17.6113 11.1892 17.5936 11.1768C17.5773 11.1662 17.5596 11.1573 17.5418 11.1502C17.5241 11.1432 17.5049 11.1396 17.4857 11.1378C17.4665 11.1361 17.4487 11.1343 17.4295 11.1361C17.4103 11.1378 17.3926 11.1432 17.3748 11.1485C17.3556 11.1555 17.3364 11.1626 17.3187 11.175C17.3098 11.1803 17.3009 11.1803 17.2935 11.1874C16.8945 11.4935 16.4585 11.7111 15.9974 11.8297C15.9885 11.8314 15.9811 11.8403 15.9723 11.8438C15.9531 11.8509 15.9353 11.8615 15.9176 11.8721C15.9013 11.8827 15.8851 11.8951 15.8718 11.9093C15.857 11.9234 15.8452 11.9411 15.8319 11.9588C15.82 11.9765 15.8097 11.9942 15.8008 12.0154C15.792 12.0349 15.7861 12.0561 15.7801 12.0774C15.7742 12.1004 15.7698 12.1234 15.7683 12.1481C15.7668 12.1587 15.7624 12.1694 15.7624 12.18V13.4114C15.7624 13.5512 15.6678 13.6662 15.5496 13.6662H14.7574C14.6406 13.6662 14.5446 13.553 14.5446 13.4114V12.18C14.5446 12.1676 14.5401 12.1587 14.5387 12.1481C14.5372 12.1234 14.5327 12.1004 14.5268 12.0774C14.5209 12.0561 14.515 12.0349 14.5061 12.0154C14.4973 11.9942 14.4869 11.9765 14.4751 11.9588C14.4633 11.9411 14.45 11.9252 14.4352 11.9093C14.4204 11.8951 14.4056 11.8827 14.3894 11.8721C14.3717 11.8597 14.3539 11.8509 14.3347 11.8438C14.3258 11.8403 14.3184 11.8332 14.3096 11.8297C13.8484 11.7093 13.4125 11.4935 13.0134 11.1874C13.0046 11.1803 12.9957 11.1803 12.9868 11.175C12.9691 11.1644 12.9514 11.1555 12.9307 11.1485C12.9115 11.1414 12.8937 11.1378 12.8745 11.1361C12.8553 11.1343 12.8376 11.1343 12.8183 11.1378C12.7991 11.1396 12.7814 11.1449 12.7622 11.1502C12.7444 11.1573 12.7282 11.1662 12.7105 11.1768C12.6927 11.1874 12.6765 11.2015 12.6602 11.2175C12.6528 11.2245 12.6439 11.2281 12.6366 11.2352L11.9094 12.1057C11.8281 12.203 11.6907 12.203 11.6094 12.1057L11.0492 11.4351C11.0093 11.3873 10.9872 11.3236 10.9872 11.2546C10.9872 11.1856 11.0093 11.1219 11.0492 11.0741L11.7764 10.2036C11.7838 10.1948 11.7853 10.1842 11.7912 10.1753C11.8045 10.1559 11.8148 10.1364 11.8252 10.1152C11.834 10.0957 11.8414 10.0745 11.8473 10.0533C11.8532 10.032 11.8562 10.009 11.8577 9.98602C11.8592 9.96302 11.8606 9.94179 11.8592 9.91879C11.8577 9.89579 11.8532 9.87456 11.8488 9.85333C11.8429 9.83033 11.837 9.80732 11.8266 9.78609C11.8222 9.77548 11.8222 9.76486 11.8163 9.75425C11.5606 9.27653 11.3788 8.75461 11.2798 8.20257C11.2783 8.19195 11.2709 8.18311 11.268 8.17249C11.2621 8.14949 11.2532 8.12649 11.2443 8.10526C11.2355 8.08579 11.2251 8.06633 11.2133 8.05041C11.2015 8.03272 11.1867 8.01856 11.1719 8.00264C11.1571 7.98849 11.1423 7.9761 11.1246 7.96548C11.1084 7.95487 11.0906 7.94779 11.0729 7.94071C11.0537 7.93364 11.0345 7.92833 11.0138 7.92656C11.0049 7.92479 10.996 7.91948 10.9857 7.91948H9.95703C9.84027 7.91948 9.74421 7.80625 9.74421 7.6647V6.71634L9.73978 6.71634ZM0.616634 22.2666V7.19057C0.616634 5.59999 1.62161 4.28538 2.91186 4.10669V23.5174C2.03545 23.6058 1.21371 24.0782 0.668355 24.8178C0.65062 24.8426 0.634362 24.8691 0.616627 24.8957V22.2647L0.616634 22.2666ZM25.4916 29.2713L2.66199 29.2731C1.59788 29.1899 0.712622 28.2062 0.61357 27.2844C0.53524 26.5396 0.708157 25.8513 1.11753 25.2957C1.61264 24.6234 2.39446 24.2235 3.21026 24.2235C3.29007 24.2235 3.36544 24.1864 3.42308 24.1192C3.47924 24.0519 3.51028 23.9599 3.51028 23.8644V7.55135H9.13823V7.66636C9.13823 8.20246 9.50328 8.63945 9.95108 8.63945H10.7492C10.8497 9.07646 10.9945 9.49578 11.1822 9.89033L10.6176 10.5662C10.4639 10.7502 10.3797 10.9944 10.3797 11.2544C10.3797 11.5145 10.4639 11.7587 10.6176 11.9427L11.1778 12.6133C11.3359 12.8026 11.5443 12.8981 11.7527 12.8981C11.961 12.8981 12.1695 12.8026 12.3276 12.6133L12.8921 11.9374C13.2217 12.1621 13.572 12.3355 13.937 12.4558V13.4112C13.937 13.9473 14.3021 14.3843 14.7499 14.3843H15.5421C15.9899 14.3843 16.3549 13.9473 16.3549 13.4112V12.4558C16.72 12.3355 17.0702 12.1621 17.3998 11.9374L17.9644 12.6133C18.1225 12.8026 18.3309 12.8981 18.5393 12.8981C18.7476 12.8981 18.9561 12.8026 19.1142 12.6133L19.6743 11.9427C19.828 11.7587 19.9123 11.5145 19.9123 11.2544C19.9123 10.9944 19.828 10.7502 19.6743 10.5662L19.1097 9.89033C19.2974 9.49578 19.4423 9.07645 19.5428 8.63945H20.3409C20.7887 8.63945 21.1537 8.20244 21.1537 7.66636V7.55135H25.0715L20.7943 16.8665C20.7898 16.8771 20.7898 16.8895 20.7854 16.9001C20.7795 16.9143 20.7706 16.9231 20.7677 16.939L19.2203 22.5478C19.1745 22.7123 19.2351 22.8928 19.3622 22.9759C19.408 23.006 19.4568 23.0202 19.5055 23.0202C19.5942 23.0202 19.6814 22.9724 19.7405 22.8857L22.8072 18.3033C22.8132 18.2962 22.8132 18.2856 22.8176 18.2785C22.825 18.2662 22.8338 18.2555 22.8398 18.2432L25.4912 12.4664V29.2763L25.4916 29.2713ZM6.55483 8.30706C6.46911 8.20444 6.34053 8.17437 6.22821 8.22921C6.11589 8.28406 6.04347 8.41499 6.04347 8.56184V26.5643C6.04347 26.7625 6.17796 26.9235 6.34349 26.9235H21.3814C21.5026 26.9235 21.6119 26.8368 21.6592 26.7023C21.705 26.5679 21.6799 26.4139 21.5942 26.3113L6.55483 8.30706ZM6.64203 26.2036V23.3992H6.95978C7.12531 23.3992 7.2598 23.2382 7.2598 23.0401C7.2598 22.8419 7.12531 22.6809 6.95978 22.6809H6.64203V21.7414H7.32631C7.49184 21.7414 7.62633 21.5804 7.62633 21.3823C7.62633 21.1841 7.49184 21.0231 7.32631 21.0231H6.64203V20.0836H6.95978C7.12531 20.0836 7.2598 19.9226 7.2598 19.7244C7.2598 19.5263 7.12531 19.3653 6.95978 19.3653H6.64203V18.4258H7.32631C7.49184 18.4258 7.62633 18.2648 7.62633 18.0666C7.62633 17.8685 7.49184 17.7075 7.32631 17.7075H6.64203V16.768H6.95978C7.12531 16.768 7.2598 16.607 7.2598 16.4088C7.2598 16.2106 7.12531 16.0496 6.95978 16.0496H6.64203V15.1102H7.32631C7.49184 15.1102 7.62633 14.9491 7.62633 14.751C7.62633 14.5528 7.49184 14.3918 7.32631 14.3918H6.64203V9.42354L20.6557 26.1999L6.64203 26.2036ZM9.23581 23.5373H14.7117C14.8329 23.5373 14.9422 23.4506 14.9895 23.3161C15.0353 23.1816 15.0102 23.0277 14.9245 22.9251L9.44863 16.3697C9.36291 16.2671 9.23433 16.237 9.12201 16.2919C9.00968 16.3467 8.93727 16.4776 8.93727 16.6245V23.1799C8.93727 23.378 9.07176 23.539 9.23729 23.539L9.23581 23.5373ZM9.53583 17.4896L13.9875 22.8189H9.53583V17.4896Z" fill="black"/>
</svg>
