<svg width="30" height="30" viewBox="0 0 30 30" fill="none" xmlns="http://www.w3.org/2000/svg">
<path d="M4.89697 25.2233C3.52886 25.2233 2.41467 24.2155 2.41467 22.978V20.5874C2.41467 20.4561 2.48722 20.3389 2.60641 20.2686C2.7256 20.1983 2.87589 20.1843 3.01064 20.2358C4.28028 20.7186 5.51884 20.7186 6.79359 20.2358C6.92314 20.1842 7.07343 20.1983 7.19261 20.2686C7.31179 20.3389 7.38435 20.4608 7.38435 20.5874V22.978C7.37917 24.2155 6.26508 25.2233 4.89697 25.2233ZM3.078 20.9015V22.9828C3.078 23.8921 3.89681 24.6328 4.90214 24.6328C5.90748 24.6328 6.72629 23.8921 6.72629 22.9828V20.9015C5.50846 21.2859 4.28545 21.2859 3.078 20.9015Z" fill="black"/>
<path d="M8.94467 23.1421H7.05316C6.87178 23.1421 6.7215 23.0062 6.7215 22.8421C6.7215 22.678 6.87178 22.5421 7.05316 22.5421H8.61821V21.1593C8.61821 19.3265 6.97024 17.8359 4.94405 17.8359C2.91786 17.8359 1.26989 19.3265 1.26989 21.1593V22.5421H2.75203C2.93341 22.5421 3.08369 22.678 3.08369 22.8421C3.08369 23.0062 2.93341 23.1421 2.75203 23.1421H0.93823C0.75685 23.1421 0.606567 23.0062 0.606567 22.8421V21.164C0.606567 19.003 2.54991 17.2454 4.93875 17.2454C7.32758 17.2454 9.27092 19.0032 9.27092 21.164V22.8421C9.2761 23.0108 9.12605 23.1421 8.94467 23.1421Z" fill="black"/>
<path d="M9.25538 30H0.538952C0.243566 30 0 29.7797 0 29.5125V26.8125C0 26.4094 0.27984 26.0484 0.699609 25.9172C2.58077 25.3359 2.82431 24.1266 2.83469 24.075C2.86578 23.9156 3.0368 23.8031 3.21298 23.8266C3.39436 23.85 3.51355 24.0047 3.48764 24.1641C3.47727 24.2297 3.19225 25.7766 0.917253 26.4797C0.76697 26.5266 0.668506 26.6625 0.668506 26.8079V29.4H9.13619V26.8125C9.13619 26.6672 9.03254 26.5313 8.88744 26.4844C6.60726 25.7766 6.3274 24.2344 6.31705 24.1688C6.29114 24.0047 6.41552 23.8547 6.59689 23.8266C6.77827 23.8031 6.94411 23.9156 6.97519 24.0797C6.98555 24.1266 7.22393 25.3359 9.10509 25.9219C9.51967 26.0531 9.8047 26.4094 9.8047 26.8172V29.5172C9.79434 29.7797 9.55593 30 9.25538 30Z" fill="black"/>
<path d="M4.92825 28.2187C4.84015 28.2187 4.75723 28.1859 4.69505 28.1297L1.99511 25.6875C1.86556 25.5703 1.86556 25.3828 1.99511 25.2656C2.12467 25.1484 2.33195 25.1484 2.4615 25.2656L4.92824 27.4969L7.36908 25.289C7.49863 25.1719 7.70591 25.1719 7.83546 25.289C7.96501 25.4062 7.96502 25.5937 7.83546 25.7109L5.16143 28.1297C5.09924 28.1859 5.01634 28.2187 4.92825 28.2187Z" fill="black"/>
<path d="M25.0872 25.2233C23.719 25.2233 22.6049 24.2155 22.6049 22.978V20.5874C22.6049 20.4561 22.6774 20.3389 22.7966 20.2686C22.9158 20.1983 23.0661 20.1843 23.2008 20.2358C24.4705 20.7186 25.709 20.7186 26.9838 20.2358C27.1133 20.1842 27.2636 20.1983 27.3828 20.2686C27.502 20.3389 27.5745 20.4608 27.5745 20.5874V22.978C27.5694 24.2155 26.4553 25.2233 25.0872 25.2233ZM23.263 20.9015V22.9828C23.263 23.8921 24.0818 24.6328 25.0872 24.6328C26.0925 24.6328 26.9113 23.8921 26.9113 22.9828V20.9015C25.6987 21.2859 24.4756 21.2859 23.263 20.9015Z" fill="black"/>
<path d="M29.1345 23.1421H27.243C27.0616 23.1421 26.9113 23.0062 26.9113 22.8421C26.9113 22.678 27.0616 22.5421 27.243 22.5421H28.808V21.1593C28.808 19.3265 27.1601 17.8359 25.1339 17.8359C23.1077 17.8359 21.4597 19.3265 21.4597 21.1593V22.5421H22.9418C23.1232 22.5421 23.2735 22.678 23.2735 22.8421C23.2735 23.0062 23.1232 23.1421 22.9418 23.1421H21.128C20.9467 23.1421 20.7964 23.0062 20.7964 22.8421V21.164C20.7964 19.003 22.7397 17.2454 25.1286 17.2454C27.5174 17.2454 29.4607 19.0032 29.4607 21.164V22.8421C29.4607 23.0108 29.3159 23.1421 29.1345 23.1421Z" fill="black"/>
<path d="M29.4453 30H20.7289C20.4335 30 20.1899 29.7797 20.1899 29.5125V26.8125C20.1899 26.4094 20.4698 26.0484 20.8896 25.9172C22.7707 25.3359 23.0142 24.1266 23.0246 24.075C23.0557 23.9156 23.2267 23.8031 23.4029 23.8266C23.5843 23.85 23.7035 24.0047 23.6776 24.1641C23.6672 24.2297 23.3822 25.7766 21.1072 26.4797C20.9569 26.5266 20.8584 26.6625 20.8584 26.8079V29.4H29.3314V26.8125C29.3314 26.6672 29.2278 26.5313 29.0827 26.4844C26.8025 25.7766 26.5226 24.2344 26.5123 24.1688C26.4864 24.0047 26.6108 23.8547 26.7921 23.8266C26.9683 23.8031 27.1394 23.9156 27.1704 24.0797C27.1808 24.1266 27.4192 25.3359 29.3003 25.9219C29.7149 26.0531 29.9999 26.4094 29.9999 26.8172V29.5172C29.9844 29.7797 29.7407 30 29.4453 30Z" fill="black"/>
<path d="M25.1182 28.2187C25.0301 28.2187 24.9472 28.1859 24.885 28.1297L22.1851 25.6875C22.0555 25.5703 22.0555 25.3828 22.1851 25.2656C22.3146 25.1484 22.5219 25.1484 22.6514 25.2656L25.1182 27.4969L27.559 25.289C27.6886 25.1719 27.8959 25.1719 28.0254 25.289C28.155 25.4062 28.155 25.5937 28.0254 25.7109L25.3514 28.1297C25.2892 28.1859 25.2063 28.2187 25.1182 28.2187Z" fill="black"/>
<path d="M17.6766 19.2842H12.3027C11.6756 19.2842 11.1626 18.8201 11.1626 18.2529C11.1626 17.6857 11.6756 17.2217 12.3027 17.2217H17.6766C18.3037 17.2217 18.8167 17.6857 18.8167 18.2529C18.8167 18.8248 18.3037 19.2842 17.6766 19.2842ZM12.3027 17.8217C12.0384 17.8217 11.8259 18.0139 11.8259 18.2529C11.8259 18.492 12.0384 18.6842 12.3027 18.6842H17.6766C17.9409 18.6842 18.1534 18.492 18.1534 18.2529C18.1534 18.0139 17.9409 17.8217 17.6766 17.8217H12.3027Z" fill="black"/>
<path d="M17.6766 20.7471H12.3027C11.6756 20.7471 11.1626 20.283 11.1626 19.7158C11.1626 19.1486 11.6756 18.6846 12.3027 18.6846H17.6766C18.3037 18.6846 18.8167 19.1486 18.8167 19.7158C18.8167 20.2877 18.3037 20.7471 17.6766 20.7471ZM12.3027 19.2846C12.0384 19.2846 11.8259 19.4768 11.8259 19.7158C11.8259 19.9549 12.0384 20.1471 12.3027 20.1471H17.6766C17.9409 20.1471 18.1534 19.9549 18.1534 19.7158C18.1534 19.4768 17.9409 19.2846 17.6766 19.2846H12.3027Z" fill="black"/>
<path d="M14.9716 22.0123C14.1995 22.0123 13.5776 21.4451 13.5776 20.7514V20.4514C13.5776 20.2873 13.7279 20.1514 13.9093 20.1514C14.0907 20.1514 14.241 20.2873 14.241 20.4514V20.7514C14.241 21.117 14.5726 21.417 14.9769 21.417C15.3811 21.417 15.7127 21.117 15.7127 20.7514V20.4514C15.7127 20.2873 15.863 20.1514 16.0444 20.1514C16.2258 20.1514 16.3761 20.2873 16.3761 20.4514V20.7514C16.3709 21.4451 15.7438 22.0123 14.9716 22.0123Z" fill="black"/>
<path d="M17.6455 17.8218C17.6196 17.8218 17.5885 17.8171 17.5574 17.8124C17.3812 17.7703 17.2776 17.6062 17.3242 17.4468C17.687 16.2187 18.6198 15.164 19.3401 14.4984C20.589 13.3359 21.3404 11.9109 21.4493 10.4859C21.6358 8.04839 20.3092 5.9718 17.8942 4.9359C16.0649 4.1484 13.8831 4.1484 12.0589 4.9359C9.64401 5.97654 8.31742 8.04839 8.50382 10.4859C8.61264 11.9109 9.36409 13.3359 10.613 14.4984C11.3281 15.1687 12.261 16.2187 12.6289 17.4468C12.6755 17.6062 12.5719 17.7702 12.3957 17.8124C12.2195 17.8547 12.0381 17.7609 11.9914 17.6015C11.665 16.4953 10.8047 15.5297 10.1414 14.9109C8.78364 13.6452 7.97003 12.089 7.84566 10.5234C7.63837 7.83275 9.10495 5.54069 11.7739 4.39199C13.7794 3.52949 16.1737 3.52949 18.1789 4.39199C20.8478 5.54042 22.3144 7.83269 22.1072 10.5234C21.988 12.089 21.1692 13.6452 19.8114 14.9109C19.1481 15.5296 18.2878 16.4952 17.9614 17.6015C17.9251 17.7328 17.7906 17.8218 17.6455 17.8218Z" fill="black"/>
<path d="M5.90249 12.2814H4.43591C4.25453 12.2814 4.10425 12.1455 4.10425 11.9814C4.10425 11.8173 4.25453 11.6814 4.43591 11.6814H5.90249C6.08387 11.6814 6.23415 11.8173 6.23415 11.9814C6.23415 12.1501 6.08905 12.2814 5.90249 12.2814Z" fill="black"/>
<path d="M25.543 12.2814H24.0764C23.895 12.2814 23.7448 12.1455 23.7448 11.9814C23.7448 11.8173 23.895 11.6814 24.0764 11.6814H25.543C25.7244 11.6814 25.8747 11.8173 25.8747 11.9814C25.8747 12.1501 25.7244 12.2814 25.543 12.2814Z" fill="black"/>
<path d="M7.80432 5.1657C7.7214 5.1657 7.6333 5.13758 7.57112 5.07664L6.43103 4.04539C6.30147 3.92821 6.30147 3.74071 6.43103 3.62353C6.56058 3.50635 6.76786 3.50635 6.89741 3.62353L8.0375 4.65478C8.16706 4.77197 8.16706 4.95946 8.0375 5.07664C7.97014 5.13758 7.88723 5.1657 7.80432 5.1657Z" fill="black"/>
<path d="M22.1799 5.16571C22.0969 5.16571 22.0088 5.13758 21.9467 5.07664C21.8171 4.95946 21.8171 4.77196 21.9467 4.65478L23.0867 3.62353C23.2163 3.50635 23.4236 3.50635 23.5531 3.62353C23.6827 3.74072 23.6827 3.92821 23.5531 4.04539L22.413 5.07664C22.3508 5.13758 22.2679 5.16571 22.1799 5.16571Z" fill="black"/>
<path d="M14.9716 2.19375C14.7902 2.19375 14.6399 2.05781 14.6399 1.89375V0.3C14.6399 0.135936 14.7902 0 14.9716 0C15.1529 0 15.3032 0.135936 15.3032 0.3V1.89375C15.3032 2.05781 15.1529 2.19375 14.9716 2.19375Z" fill="black"/>
<path d="M15.6192 15.4924H14.3237C13.9454 15.4924 13.6344 15.2111 13.6344 14.869V14.2549C13.4841 14.208 13.339 14.1518 13.1991 14.0908L12.7224 14.5221C12.4529 14.7658 12.0176 14.7658 11.7481 14.5221L10.836 13.6971C10.5666 13.4533 10.5666 13.0596 10.836 12.8158L11.3128 12.3846C11.2454 12.258 11.1832 12.1268 11.1314 11.9908H10.4525C10.0742 11.9908 9.76331 11.7096 9.76331 11.3674V10.1955C9.76331 9.85337 10.0742 9.57212 10.4525 9.57212H11.1314C11.1832 9.43618 11.2454 9.30493 11.3128 9.17837L10.836 8.74712C10.5666 8.50337 10.5666 8.10962 10.836 7.86587L11.7481 7.04087C12.0072 6.80649 12.4632 6.80649 12.7224 7.04087L13.1991 7.47212C13.339 7.41118 13.4841 7.35493 13.6344 7.30806V6.69399C13.6344 6.35181 13.9454 6.07056 14.3237 6.07056H15.6192C15.9975 6.07056 16.3084 6.35181 16.3084 6.69399V7.30806C16.4587 7.35493 16.6038 7.41118 16.7437 7.47212L17.2205 7.04087C17.3501 6.92368 17.5211 6.85806 17.7076 6.85806C17.8942 6.85806 18.0652 6.92368 18.1948 7.04087L19.1069 7.86587C19.2364 7.98305 19.309 8.14243 19.309 8.30651C19.309 8.47058 19.2364 8.62994 19.1069 8.74715L18.6301 9.1784C18.6975 9.30496 18.7597 9.43621 18.8115 9.57215H19.4904C19.8687 9.57215 20.1796 9.8534 20.1796 10.1956V11.3674C20.1796 11.7096 19.8687 11.9909 19.4904 11.9909H18.8115C18.7597 12.1268 18.6975 12.258 18.6301 12.3846L19.1069 12.8159C19.3763 13.0596 19.3763 13.4534 19.1069 13.6971L18.1948 14.5221C17.9253 14.7659 17.49 14.7659 17.2205 14.5221L16.7438 14.0909C16.6038 14.1518 16.4587 14.208 16.3085 14.2549V14.869C16.3085 15.2112 16.0027 15.4924 15.6192 15.4924ZM13.1421 13.4299C13.1991 13.4299 13.2561 13.444 13.3027 13.4674C13.5359 13.5893 13.7899 13.683 14.0593 13.7486C14.2044 13.7861 14.3029 13.9033 14.3029 14.0346V14.8689L15.6244 14.8971L15.6555 14.0392C15.6555 13.9033 15.7539 13.7861 15.899 13.7533C16.1633 13.6877 16.4172 13.5892 16.6556 13.4721C16.7852 13.4064 16.9458 13.4252 17.0495 13.5189L17.6972 14.1049L18.6508 13.2799L18.003 12.6564C17.8993 12.5627 17.8734 12.4127 17.9512 12.3002C18.0859 12.0893 18.1896 11.8595 18.2621 11.6158C18.3036 11.4846 18.4331 11.3955 18.5782 11.3955L19.5266 11.3674V10.1955L18.5782 10.1674C18.4279 10.1674 18.2984 10.0783 18.2621 9.94709C18.1896 9.70803 18.0807 9.47834 17.9512 9.26273C17.8786 9.14555 17.8993 9.00023 18.003 8.90648L18.6508 8.32055L17.7387 7.45805L17.0495 8.04398C16.9458 8.13773 16.78 8.15648 16.6556 8.09086C16.4224 7.96898 16.1685 7.87523 15.899 7.80961C15.7539 7.77211 15.6555 7.65492 15.6555 7.52367V6.68932L14.334 6.66119L14.3029 7.51901C14.3029 7.65494 14.2044 7.77213 14.0593 7.80494C13.795 7.87057 13.5411 7.96901 13.3027 8.08619C13.1732 8.15182 13.0125 8.13307 12.9089 8.03932L12.2611 7.45339L11.3076 8.27839L11.9554 8.90182C12.059 8.99557 12.0849 9.14088 12.0072 9.25807C11.8724 9.469 11.7688 9.69871 11.6962 9.94243C11.6548 10.0737 11.5252 10.1627 11.3801 10.1627H10.4577L10.4266 11.3581L11.375 11.3862C11.5252 11.3862 11.6548 11.4752 11.6911 11.6065C11.7636 11.8456 11.8725 12.0752 12.002 12.2909C12.0746 12.408 12.0538 12.5534 11.9502 12.6471L11.3024 13.233L12.2145 14.0955L12.9037 13.5096C12.9711 13.458 13.054 13.4299 13.1421 13.4299Z" fill="black"/>
<path d="M14.9663 12.6751C14.8316 12.6751 14.702 12.6657 14.5673 12.6422C13.7381 12.5016 13.08 11.9016 12.9193 11.1516C12.7898 10.5282 13.0022 9.89068 13.4946 9.44536C13.9869 9.00004 14.6917 8.80786 15.3809 8.92504C16.21 9.06566 16.8682 9.66568 17.0289 10.4157C17.1584 11.0391 16.9459 11.6766 16.4536 12.1219C16.0546 12.4782 15.5208 12.6751 14.9663 12.6751ZM14.9715 9.48756C14.5932 9.48756 14.2356 9.61881 13.9609 9.86724C13.6189 10.1766 13.479 10.6032 13.5671 11.0391C13.6759 11.55 14.1216 11.9578 14.6865 12.0516C15.1684 12.136 15.64 12.0047 15.982 11.6953C16.324 11.386 16.4639 10.9594 16.3758 10.5235C16.267 10.0126 15.8213 9.60474 15.2565 9.51099C15.1632 9.49693 15.0648 9.48756 14.9715 9.48756Z" fill="black"/>
</svg>
