<svg width="51" height="43" viewBox="0 0 51 43" fill="none" xmlns="http://www.w3.org/2000/svg">
<path d="M23.6455 34.4001H16.2273C15.4592 34.4001 14.8364 34.9252 14.8364 35.5729V41.8274C14.8364 42.4751 15.4592 43.0001 16.2273 43.0001H23.6455C24.4137 43.0001 25.0364 42.4751 25.0364 41.8274V35.5729C25.0364 34.9252 24.4137 34.4001 23.6455 34.4001Z" fill="#FFAA17"/>
<path d="M49.6091 23.4546H42.191C41.4228 23.4546 40.8 23.9796 40.8 24.6273V41.8273C40.8 42.475 41.4228 43 42.191 43H49.6091C50.3773 43 51 42.475 51 41.8273V24.6273C51 23.9796 50.3773 23.4546 49.6091 23.4546Z" fill="#FFAA17"/>
<path d="M36.6274 29.7092H29.2093C28.4411 29.7092 27.8184 30.2343 27.8184 30.882V41.8274C27.8184 42.4751 28.4411 43.0001 29.2093 43.0001H36.6274C37.3956 43.0001 38.0184 42.4751 38.0184 41.8274V30.882C38.0184 30.2343 37.3956 29.7092 36.6274 29.7092Z" fill="#FFAA17"/>
<path d="M26.1956 5.76587V11.5318H33.0342C32.7424 10.0921 31.9278 8.76425 30.7029 7.73148C29.478 6.69871 27.9031 6.01192 26.1956 5.76587Z" fill="#FFAA17"/>
<path d="M23.4137 12.7046V7.43799C22.2947 7.64815 21.2632 8.10791 20.4271 8.76918C19.591 9.43046 18.981 10.269 18.6607 11.1971C18.3405 12.1251 18.3219 13.1087 18.6068 14.045C18.8916 14.9812 19.4696 15.8357 20.2802 16.5192C21.0909 17.2027 22.1044 17.69 23.2148 17.9302C24.3252 18.1704 25.4918 18.1547 26.5925 17.8847C27.6933 17.6147 28.6878 17.1003 29.4721 16.3953C30.2564 15.6904 30.8017 14.8207 31.051 13.8773H24.8046C24.4357 13.8772 24.082 13.7536 23.8212 13.5337C23.5603 13.3138 23.4138 13.0156 23.4137 12.7046Z" fill="#FFAA17"/>
<path d="M35.2984 3.85698C33.8839 2.63748 32.1705 1.6934 30.2779 1.09081C28.3853 0.488227 26.3594 0.241709 24.3419 0.368515C22.3245 0.495321 20.3643 0.992388 18.5986 1.82491C16.833 2.65744 15.3044 3.80531 14.1201 5.18815L9.922 0.468778C9.79225 0.323288 9.62418 0.20521 9.43104 0.123857C9.2379 0.0425047 9.02499 0.000104024 8.80909 0H1.39091C1.02202 0 0.668234 0.123555 0.407388 0.343484C0.146542 0.563413 0 0.861701 0 1.17273C0 1.48375 0.146542 1.78204 0.407388 2.00197C0.668234 2.2219 1.02202 2.34545 1.39091 2.34545H8.11364L12.5915 7.37994C11.6659 9.11972 11.252 11.0221 11.385 12.9256C11.518 14.8291 12.1939 16.6774 13.3554 18.3136L3.51214 23.3375C2.69206 23.756 1.9956 24.3263 1.47545 25.0051C0.955304 25.684 0.625088 26.4538 0.509787 27.2561C0.394485 28.0584 0.497118 28.8724 0.809921 29.6364C1.12272 30.4003 1.6375 31.0943 2.31532 31.6658C2.99313 32.2373 3.81622 32.6714 4.72232 32.9351C5.62843 33.1989 6.59381 33.2854 7.54543 33.1882C8.49705 33.091 9.41 32.8126 10.2152 32.3741C11.0204 31.9355 11.6967 31.3483 12.1931 30.6569L18.1515 22.3584C21.0868 23.8477 24.567 24.3799 27.9356 23.8545C31.3042 23.3292 34.3284 21.7827 36.4377 19.5068C38.547 17.2308 39.5956 14.3828 39.3858 11.4998C39.1759 8.61687 37.722 5.89832 35.2984 3.85698ZM34.5409 13.8773H33.8441C33.5903 15.2902 32.8765 16.616 31.7824 17.7073C30.6882 18.7986 29.2564 19.6126 27.6463 20.0587C26.0361 20.5049 24.3108 20.5657 22.6621 20.2345C21.0134 19.9032 19.506 19.1929 18.3075 18.1824C17.1091 17.172 16.2666 15.901 15.8737 14.5109C15.4808 13.1209 15.553 11.6662 16.0822 10.3086C16.6113 8.95103 17.5768 7.74384 18.8711 6.82129C20.1654 5.89874 21.7379 5.29698 23.4136 5.08296V4.49545C23.4137 4.18445 23.5603 3.88621 23.8211 3.6663C24.082 3.44639 24.4357 3.32281 24.8045 3.32273C27.7547 3.32545 30.5831 4.31476 32.6692 6.0736C34.7552 7.83245 35.9286 10.2172 35.9318 12.7045C35.9317 13.0155 35.7851 13.3138 35.5243 13.5337C35.2635 13.7536 34.9098 13.8772 34.5409 13.8773Z" fill="#FFAA17"/>
<path d="M49.6091 20.3274H42.191C41.8221 20.3274 41.4683 20.4509 41.2074 20.6709C40.9466 20.8908 40.8 21.1891 40.8 21.5001C40.8 21.8111 40.9466 22.1094 41.2074 22.3294C41.4683 22.5493 41.8221 22.6728 42.191 22.6728H49.6091C49.978 22.6728 50.3318 22.5493 50.5927 22.3294C50.8535 22.1094 51 21.8111 51 21.5001C51 21.1891 50.8535 20.8908 50.5927 20.6709C50.3318 20.4509 49.978 20.3274 49.6091 20.3274Z" fill="#FFAA17"/>
<path d="M36.6274 26.5818H29.2093C28.8404 26.5818 28.4866 26.7053 28.2257 26.9253C27.9649 27.1452 27.8184 27.4435 27.8184 27.7545C27.8184 28.0655 27.9649 28.3638 28.2257 28.5838C28.4866 28.8037 28.8404 28.9272 29.2093 28.9272H36.6274C36.9963 28.9272 37.3501 28.8037 37.611 28.5838C37.8718 28.3638 38.0184 28.0655 38.0184 27.7545C38.0184 27.4435 37.8718 27.1452 37.611 26.9253C37.3501 26.7053 36.9963 26.5818 36.6274 26.5818Z" fill="#FFAA17"/>
<path d="M23.6455 31.2729H16.2273C15.8584 31.2729 15.5047 31.3965 15.2438 31.6164C14.983 31.8364 14.8364 32.1346 14.8364 32.4457C14.8364 32.7567 14.983 33.055 15.2438 33.2749C15.5047 33.4948 15.8584 33.6184 16.2273 33.6184H23.6455C24.0144 33.6184 24.3682 33.4948 24.629 33.2749C24.8899 33.055 25.0364 32.7567 25.0364 32.4457C25.0364 32.1346 24.8899 31.8364 24.629 31.6164C24.3682 31.3965 24.0144 31.2729 23.6455 31.2729Z" fill="#FFAA17"/>
<path d="M49.6091 0H42.191C41.8221 0 41.4683 0.123555 41.2074 0.343484C40.9466 0.563413 40.8 0.861701 40.8 1.17273C40.8 1.48375 40.9466 1.78204 41.2074 2.00197C41.4683 2.2219 41.8221 2.34545 42.191 2.34545H49.6091C49.978 2.34545 50.3318 2.2219 50.5927 2.00197C50.8535 1.78204 51 1.48375 51 1.17273C51 0.861701 50.8535 0.563413 50.5927 0.343484C50.3318 0.123555 49.978 0 49.6091 0Z" fill="#FFAA17"/>
<path d="M49.6091 3.90918H42.191C41.8221 3.90918 41.4683 4.03273 41.2074 4.25266C40.9466 4.47259 40.8 4.77088 40.8 5.08191C40.8 5.39293 40.9466 5.69122 41.2074 5.91115C41.4683 6.13108 41.8221 6.25463 42.191 6.25463H49.6091C49.978 6.25463 50.3318 6.13108 50.5927 5.91115C50.8535 5.69122 51 5.39293 51 5.08191C51 4.77088 50.8535 4.47259 50.5927 4.25266C50.3318 4.03273 49.978 3.90918 49.6091 3.90918Z" fill="#FFAA17"/>
<path d="M1.39091 6.25463H5.1C5.46889 6.25463 5.82268 6.13108 6.08352 5.91115C6.34437 5.69122 6.49091 5.39293 6.49091 5.08191C6.49091 4.77088 6.34437 4.47259 6.08352 4.25266C5.82268 4.03273 5.46889 3.90918 5.1 3.90918H1.39091C1.02202 3.90918 0.668234 4.03273 0.407388 4.25266C0.146542 4.47259 0 4.77088 0 5.08191C0 5.39293 0.146542 5.69122 0.407388 5.91115C0.668234 6.13108 1.02202 6.25463 1.39091 6.25463Z" fill="#FFAA17"/>
</svg>
