<svg width="30" height="30" viewBox="0 0 30 30" fill="none" xmlns="http://www.w3.org/2000/svg">
<path fill-rule="evenodd" clip-rule="evenodd" d="M16.1147 20.0771C16.5159 19.0942 17.1333 18.2654 17.9457 17.4876C20.8466 14.7058 20.9228 10.0309 18.0994 7.15506C15.3398 4.34403 10.8655 4.34403 8.10583 7.15506C5.50741 9.80186 5.36493 13.9739 7.6209 16.7898C7.6284 16.7987 7.63589 16.8076 7.64339 16.8178C7.83212 17.0508 8.0371 17.2748 8.25957 17.4887C9.07073 18.2666 9.68812 19.0954 10.0906 20.0782H16.1148L16.1147 20.0771ZM7.13822 17.7269C7.28445 17.8912 7.43693 18.0503 7.59691 18.2043C7.78439 18.3851 7.96185 18.5684 8.12683 18.7569C7.95935 18.8574 7.81687 18.9631 7.80437 19.2063L7.74688 20.3368L6.95072 20.5265L6.40705 19.5386C6.31706 19.3743 6.14958 19.284 5.97709 19.2865C5.71337 19.2827 5.32341 19.2063 5.06847 19.1312C4.90224 19.0815 4.73101 19.1286 4.61227 19.2381L4.61102 19.2368L3.78488 19.9969L3.09121 19.5576L3.39243 18.4666C3.43992 18.2934 3.39118 18.1165 3.27744 17.9955C3.06747 17.7664 2.87499 17.4901 2.72877 17.2177C2.64628 17.0623 2.4913 16.9707 2.33007 16.9618L1.2202 16.9032L1.03397 16.0935L2.00383 15.5397C2.16381 15.448 2.2538 15.2774 2.2513 15.1017C2.25505 14.8331 2.33004 14.4359 2.40378 14.1762C2.45128 14.0069 2.40628 13.8325 2.2988 13.7115L2.30005 13.7102L1.55515 12.8675L1.98636 12.1609L3.05748 12.4677C3.22746 12.5161 3.40118 12.4664 3.51992 12.3518C3.74614 12.1379 4.01611 11.9419 4.28357 11.793C4.43605 11.7089 4.52604 11.5511 4.53479 11.3868L4.59228 10.2563L5.35593 10.0742C5.10721 11.0011 5.02096 11.9635 5.09721 12.9145C4.00234 13.4238 3.37993 14.6625 3.66363 15.8949C4.03108 17.5028 5.71852 18.3177 7.13822 17.7269ZM5.24594 13.9496C5.46342 14.991 5.87962 15.9967 6.49577 16.9006C6.09832 16.9834 5.67587 16.9121 5.32216 16.688C4.29227 16.0375 4.35357 14.581 5.24594 13.9496ZM8.75174 19.5908L8.693 20.7583C8.68175 20.9823 8.52552 21.1631 8.32053 21.2128L6.81823 21.5705C6.59951 21.6227 6.38203 21.5145 6.28204 21.3223L5.69338 20.2516L5.06722 20.1459L4.16359 20.976C3.99611 21.1287 3.75366 21.1415 3.57365 21.0205L2.27382 20.1981C2.08259 20.0772 2.0026 19.8416 2.06884 19.6316L2.39379 18.4552L2.02386 17.9294L0.810252 17.8658C0.59028 17.8543 0.412798 17.6952 0.364069 17.4864L0.0128495 15.9561C-0.0383952 15.7333 0.067844 15.5118 0.256569 15.4099L1.3077 14.8103L1.41144 14.1725L0.596532 13.252C0.446551 13.0814 0.434053 12.8345 0.552787 12.6511L1.36017 11.3271C1.47891 11.1323 1.71014 11.0508 1.91636 11.1183L3.07122 11.4493L3.58741 11.0725L3.6499 9.83626C3.66115 9.61219 3.81738 9.4314 4.02236 9.38177L5.52467 9.02401C5.59091 9.00873 5.65715 9.00746 5.71964 9.01892C6.11086 8.0908 6.67827 7.22002 7.42442 6.45868C10.5615 3.26317 15.6496 3.26317 18.7868 6.45868C22.0014 9.73316 21.9014 15.0495 18.6106 18.2044C18.1669 18.6296 17.8132 19.0484 17.5345 19.4698C17.2707 19.8671 17.0733 20.2668 16.9258 20.678C17.4582 21.3171 17.5295 22.3305 16.8421 23.0307C16.6783 23.1975 16.4821 23.3299 16.2634 23.419C16.6183 24.0492 16.5946 24.8971 15.9972 25.5069C15.691 25.8188 15.2698 26.0123 14.8061 26.0149V26.3179C14.8061 27.1518 14.2611 27.7667 13.5912 27.9729V28.4223C13.5912 28.6808 13.7249 29.0156 13.9186 29.0156H18.1069C18.2994 29.0156 18.4344 28.6808 18.4344 28.4223V27.5553C18.4344 27.5362 18.4356 27.5159 18.4381 27.4968L18.1206 24.0671V24.0659C18.1082 23.9793 18.1169 23.8889 18.1519 23.8023L18.1544 23.7972L18.1556 23.796C18.1594 23.7871 18.1631 23.7782 18.1669 23.7705L25.1148 8.44105C25.1186 8.43341 25.1223 8.4245 25.1261 8.41813L25.7872 6.93877C26.2984 5.8108 27.6095 5.31808 28.7168 5.84007C29.8242 6.36079 30.3079 7.69626 29.7954 8.82422H29.7942L29.118 10.2947C29.1143 10.3036 29.1105 10.3112 29.1068 10.3201L22.1563 25.6434C22.1263 25.7185 22.0776 25.7885 22.0088 25.8433L22.0051 25.8458L21.9988 25.8509C21.9951 25.8535 21.9913 25.856 21.9876 25.8585L21.9863 25.8598L20.5877 26.8592L19.3954 27.7109V28.4213C19.3954 29.2145 18.8767 30 18.1005 30H13.9136C13.1374 30 12.6187 29.2145 12.6187 28.4213V27.9795C12.3638 27.9019 12.1175 27.7593 11.9026 27.539C11.5951 27.2259 11.4039 26.793 11.4039 26.3169V26.0126C10.0665 26.0049 9.30788 24.5141 9.94031 23.418C8.9117 23.0042 8.48424 21.6076 9.28414 20.6757C9.14415 20.2912 8.96547 19.932 8.75174 19.5908ZM13.0923 27.0615H13.1023H13.1173C13.2923 27.0589 13.471 26.9915 13.6185 26.8425C13.751 26.7076 13.8335 26.5204 13.8335 26.3167V26.0137H12.3711V26.3167C12.3711 26.7521 12.7211 27.0526 13.0923 27.0615ZM28.4315 9.46072L28.9139 8.41039H28.9127C29.3738 7.39317 28.394 6.30341 27.3553 6.69297C27.0267 6.81647 26.8079 7.03672 26.6467 7.3728L26.1855 8.40403L28.4315 9.46072ZM19.3139 26.5674L20.7437 25.5451L20.0101 25.2001L19.1489 24.7952L19.3139 26.5674ZM28.0229 10.3531L21.4724 24.8042L19.2326 23.7513L25.7832 9.30021L28.0229 10.3531ZM13.5834 7.49877C13.7409 7.37146 13.9084 7.29253 14.0659 7.26834C14.3546 7.22505 14.5258 7.38292 14.6196 7.63245C14.5171 7.7152 14.4208 7.81196 14.3346 7.92654C14.1721 8.14296 14.2134 8.45107 14.4258 8.6153C14.6383 8.77952 14.9408 8.73879 15.102 8.52236C15.5007 7.99147 16.5368 8.37213 16.4793 9.33588C16.3194 9.33715 16.1531 9.35115 15.9807 9.37916C15.7182 9.42118 15.5382 9.67325 15.5795 9.94189C15.6207 10.2092 15.8682 10.3926 16.1319 10.3506C17.7179 10.0908 18.4716 11.5893 16.8281 12.0909C16.3694 12.2309 16.3694 12.8955 16.8306 13.0355C18.4666 13.5359 17.7242 15.0343 16.1319 14.7746C15.8694 14.7326 15.6219 14.9146 15.5795 15.1832C15.5382 15.4506 15.7169 15.7027 15.9807 15.746C16.1531 15.774 16.3194 15.788 16.4781 15.7892C16.5331 16.7581 15.447 17.0776 15.1058 16.6091C14.947 16.3914 14.6446 16.3456 14.4308 16.5073C14.2171 16.669 14.1721 16.9771 14.3309 17.1948C14.4158 17.3106 14.5121 17.4099 14.6183 17.4914C14.5771 17.5971 14.5258 17.6785 14.4671 17.7371C14.2246 17.9803 13.8497 17.8364 13.5835 17.6264L13.5834 7.49877ZM12.6198 17.625C12.4636 17.751 12.2986 17.8287 12.1424 17.8516C11.8537 17.8949 11.6799 17.7383 11.5837 17.49C11.6887 17.4073 11.7862 17.3092 11.8712 17.1921C12.0299 16.9744 11.9849 16.6663 11.7712 16.5046C11.5575 16.3429 11.255 16.3888 11.0963 16.6065C11.0388 16.6841 10.9663 16.7389 10.8838 16.772C10.8688 16.7771 10.8538 16.7822 10.84 16.7885C10.6601 16.8458 10.4476 16.8178 10.2714 16.7389C9.88268 16.5657 9.70271 16.1965 9.72395 15.7866C9.88393 15.7853 10.0502 15.7713 10.2226 15.7433C10.4851 15.7013 10.6651 15.4492 10.6238 15.1806C10.5826 14.9132 10.3351 14.7299 10.0714 14.7719C8.47659 15.0316 7.73918 13.5281 9.37273 13.0329C9.83392 12.8928 9.83392 12.2295 9.37523 12.0882C7.73419 11.5853 8.48159 10.0894 10.0714 10.3479C10.3339 10.3899 10.5814 10.2078 10.6238 9.93923C10.6651 9.67187 10.4864 9.41978 10.2226 9.3765C10.0502 9.34849 9.88518 9.33449 9.72645 9.33321C9.67021 8.3453 10.7126 8.00155 11.1013 8.51969C11.2625 8.73485 11.5662 8.77686 11.7775 8.61263C11.9899 8.44713 12.0299 8.13904 11.8687 7.92387C11.7837 7.81057 11.6875 7.71254 11.5837 7.63106C11.625 7.52412 11.6762 7.44137 11.7362 7.38153C11.9787 7.13964 12.3549 7.28732 12.6198 7.49866L12.6198 17.625ZM13.1023 6.63933C14.0122 5.99258 15.1232 6.21156 15.5282 7.30006C16.5243 7.26186 17.5804 8.1212 17.4329 9.49999C17.7579 9.62348 18.0291 9.80808 18.2366 10.0309C18.9427 10.7896 18.8652 11.8909 18.0291 12.5631C19.2002 13.5039 18.7903 15.1144 17.4342 15.6274C17.5254 16.511 17.088 17.2965 16.3168 17.6428C16.0681 17.7535 15.7981 17.8096 15.5344 17.8045C15.1332 18.9044 14.0159 19.1349 13.1022 18.4869C12.1886 19.1349 11.0712 18.9044 10.67 17.8058C9.6814 17.821 8.62278 16.9731 8.769 15.6262C8.44405 15.5027 8.17407 15.3181 7.96661 15.0966C7.26046 14.3378 7.33795 13.2366 8.17408 12.5644C7.00172 11.6223 7.41543 10.0131 8.76902 9.50002C8.68028 8.63941 9.07523 7.82843 9.86388 7.46559C10.1239 7.34591 10.4026 7.2899 10.675 7.30136C11.08 6.21286 12.1911 5.99131 13.1023 6.63933ZM2.70358 6.76664L4.37838 7.75201C4.6096 7.88824 4.90455 7.80803 5.03829 7.5725C5.17202 7.33698 5.09329 7.03654 4.86206 6.9003L3.18727 5.91493C2.95605 5.7787 2.6611 5.85891 2.52735 6.09444C2.39487 6.32996 2.47361 6.6304 2.70358 6.76664ZM6.94176 2.24716L7.90913 3.95313C8.04161 4.18866 8.33656 4.26887 8.56655 4.13392C8.79777 3.99897 8.87651 3.69853 8.74402 3.46426L7.77666 1.75828C7.64418 1.52275 7.34923 1.44255 7.11924 1.5775C6.88927 1.71118 6.80928 2.01162 6.94176 2.24716ZM23.2283 6.28787L21.5535 7.27324C21.3223 7.40819 21.2436 7.70863 21.376 7.9429C21.5085 8.17843 21.8035 8.25863 22.0335 8.12368L23.7083 7.13831C23.9395 7.00336 24.0182 6.70292 23.8857 6.46865C23.7533 6.23312 23.4596 6.15164 23.2283 6.28787ZM18.7914 1.96948C18.9252 1.73395 19.2201 1.65502 19.4514 1.78997C19.6826 1.92619 19.7601 2.22663 19.6276 2.46217L18.6602 4.16815C18.5265 4.40367 18.2315 4.4826 18.0003 4.34766C17.7691 4.21143 17.6916 3.91099 17.8241 3.67545L18.7914 1.96948ZM12.8284 0.492687C12.8284 0.220241 13.0446 0 13.3121 0C13.5795 0 13.7957 0.220248 13.7957 0.492687V2.4622C13.7957 2.73464 13.5795 2.95489 13.3121 2.95489C13.0446 2.95489 12.8284 2.73464 12.8284 2.4622V0.492687ZM11.4123 23.5372C10.7736 23.5372 10.4312 24.3329 10.8961 24.8078C11.0286 24.9427 11.2111 25.0268 11.4123 25.0268H14.7907C15.4294 25.0268 15.7719 24.2311 15.3069 23.7562C15.1745 23.6213 14.992 23.5372 14.7907 23.5372H11.4123ZM10.5662 21.0623C9.92749 21.0636 9.58504 21.858 10.0512 22.3328C10.1837 22.4678 10.3662 22.5518 10.5674 22.5518H15.6381C16.2768 22.5518 16.6192 21.7561 16.1543 21.2813C16.0218 21.1463 15.8406 21.0636 15.6406 21.0623H10.5662Z" fill="black"/>
</svg>
