<svg width="56" height="45" viewBox="0 0 56 45" fill="none" xmlns="http://www.w3.org/2000/svg">
<path d="M46.2748 25.5374C46.4593 24.7828 46.5718 24.0181 46.6112 23.2498H50.5626C50.7827 23.7499 51.2157 24.1715 51.7852 24.4399C52.3547 24.7083 53.0239 24.8063 53.6746 24.7166C54.3253 24.6269 54.9156 24.3552 55.3411 23.9496C55.7666 23.5439 56 23.0305 56 22.5C56 21.9694 55.7666 21.456 55.341 21.0504C54.9154 20.6448 54.3251 20.3731 53.6744 20.2834C53.0237 20.1937 52.3545 20.2917 51.7851 20.5602C51.2156 20.8286 50.7826 21.2502 50.5625 21.7504H46.6112C46.5718 20.9821 46.4593 20.2173 46.2748 19.4628L43.2919 19.1632C43.0689 18.5089 42.7813 17.8699 42.4319 17.2523H48.5247V14.2536H50.5625C50.7826 14.7538 51.2157 15.1753 51.7852 15.4438C52.3546 15.7122 53.0239 15.8102 53.6746 15.7205C54.3253 15.6307 54.9156 15.359 55.3411 14.9534C55.7666 14.5478 56 14.0343 56 13.5038C56 12.9733 55.7665 12.4598 55.341 12.0542C54.9154 11.6486 54.3251 11.377 53.6744 11.2873C53.0237 11.1976 52.3545 11.2956 51.785 11.564C51.2156 11.8325 50.7825 12.2541 50.5625 12.7543H46.6588V15.753H42.1537L43.5884 14.2707C42.1877 12.5614 40.3683 11.0993 38.241 9.9738L36.3965 11.1267V7.5065H40.1282V4.36964C40.7507 4.19281 41.2754 3.84483 41.6095 3.38721C41.9436 2.92959 42.0656 2.39179 41.954 1.86887C41.8424 1.34595 41.5043 0.87157 40.9995 0.529582C40.4947 0.187595 39.8557 1.59178e-05 39.1955 1.01304e-09C38.5352 -1.59158e-05 37.8962 0.187532 37.3914 0.529495C36.8866 0.871459 36.5484 1.34582 36.4368 1.86874C36.3251 2.39165 36.4471 2.92946 36.7812 3.3871C37.1152 3.84473 37.6399 4.19274 38.2624 4.3696V6.00714H34.5306V10.9031C33.7621 10.6223 32.9669 10.3913 32.1526 10.2121L31.7798 7.81508C30.8408 7.66684 29.8891 7.57646 28.933 7.54474V4.36964C29.5555 4.19281 30.0801 3.84483 30.4142 3.38721C30.7483 2.92959 30.8704 2.39179 30.7587 1.86887C30.6471 1.34595 30.309 0.87157 29.8042 0.529582C29.2994 0.187595 28.6604 1.59178e-05 28.0002 1.01304e-09C27.3399 -1.59158e-05 26.7009 0.187532 26.1961 0.529495C25.6913 0.871459 25.3532 1.34582 25.2415 1.86874C25.1298 2.39165 25.2518 2.92946 25.5859 3.3871C25.92 3.84473 26.4446 4.19274 27.0671 4.3696V7.54474C26.111 7.57645 25.1593 7.66682 24.2203 7.81506L23.8474 10.2121C23.0332 10.3913 22.238 10.6224 21.4695 10.9031V6.00714H17.7377V4.36964C18.3602 4.19281 18.8849 3.84483 19.219 3.38721C19.5531 2.92959 19.6751 2.39179 19.5635 1.86887C19.4518 1.34595 19.1138 0.87157 18.609 0.529582C18.1042 0.187595 17.4652 1.59178e-05 16.8049 1.01304e-09C16.1447 -1.59158e-05 15.5057 0.187532 15.0008 0.529495C14.496 0.871459 14.1579 1.34582 14.0462 1.86874C13.9346 2.39165 14.0565 2.92946 14.3906 3.3871C14.7247 3.84473 15.2493 4.19274 15.8718 4.3696V7.5065H19.6036V11.1267L17.759 9.97382C15.6318 11.0993 13.8123 12.5614 12.4117 14.2707L13.8464 15.753H9.34124V12.7543H5.43757C5.21749 12.2541 4.78445 11.8325 4.21497 11.564C3.64549 11.2956 2.97625 11.1976 2.32553 11.2873C1.67481 11.377 1.08451 11.6487 0.658956 12.0543C0.233403 12.4599 0 12.9734 0 13.5039C0 14.0345 0.233403 14.5479 0.658956 14.9536C1.08451 15.3592 1.67481 15.6309 2.32553 15.7206C2.97625 15.8103 3.64549 15.7123 4.21497 15.4438C4.78445 15.1754 5.21749 14.7538 5.43757 14.2536H7.47536V17.2523H13.5681C13.2187 17.8699 12.9312 18.5089 12.7082 19.1632L9.72526 19.4628C9.54077 20.2173 9.4283 20.9821 9.38882 21.7504H5.43757C5.21749 21.2502 4.78445 20.8286 4.21497 20.5602C3.64549 20.2917 2.97625 20.1937 2.32553 20.2834C1.67481 20.3732 1.08451 20.6448 0.658956 21.0505C0.233403 21.4561 0 21.9695 0 22.5001C0 23.0306 0.233403 23.5441 0.658956 23.9497C1.08451 24.3553 1.67481 24.627 2.32553 24.7167C2.97625 24.8064 3.64549 24.7084 4.21497 24.44C4.78445 24.1715 5.21749 23.75 5.43757 23.2498H9.38882C9.42829 24.0181 9.54075 24.7828 9.72523 25.5374L12.7081 25.837C12.9311 26.4913 13.2187 27.1303 13.5681 27.7478H7.47536V30.7466H5.43757C5.21749 30.2464 4.78445 29.8248 4.21497 29.5563C3.64549 29.2879 2.97625 29.1899 2.32553 29.2796C1.67481 29.3693 1.08451 29.641 0.658956 30.0466C0.233403 30.4522 0 30.9657 0 31.4962C0 32.0268 0.233403 32.5402 0.658956 32.9459C1.08451 33.3515 1.67481 33.6232 2.32553 33.7129C2.97625 33.8026 3.64549 33.7046 4.21497 33.4361C4.78445 33.1677 5.21749 32.7461 5.43757 32.2459H9.34124V29.2472H13.8464L12.4117 30.7294C13.8123 32.4388 15.6317 33.9008 17.759 35.0263L19.6036 33.8735V37.4937H15.8718V40.6305C15.2493 40.8074 14.7247 41.1554 14.3907 41.613C14.0566 42.0706 13.9346 42.6084 14.0462 43.1313C14.1579 43.6542 14.496 44.1285 15.0008 44.4705C15.5056 44.8124 16.1445 45 16.8048 45C17.465 45 18.104 44.8124 18.6087 44.4705C19.1135 44.1285 19.4516 43.6542 19.5633 43.1313C19.6749 42.6084 19.5529 42.0706 19.2189 41.613C18.8848 41.1554 18.3602 40.8074 17.7377 40.6305V38.993H21.4695V34.097C22.238 34.3778 23.0332 34.6089 23.8474 34.7881L24.2203 37.1851C25.1593 37.3333 26.111 37.4237 27.0671 37.4554V40.6306C26.4446 40.8074 25.92 41.1554 25.5859 41.613C25.2519 42.0706 25.1299 42.6084 25.2415 43.1313C25.3532 43.6542 25.6913 44.1285 26.196 44.4705C26.7008 44.8124 27.3398 45 28 45C28.6603 45 29.2992 44.8124 29.804 44.4705C30.3088 44.1285 30.6469 43.6542 30.7585 43.1313C30.8702 42.6084 30.7482 42.0706 30.4141 41.613C30.0801 41.1554 29.5554 40.8074 28.933 40.6306V37.4554C29.8891 37.4237 30.8408 37.3333 31.7798 37.1851L32.1526 34.7881C32.9669 34.6089 33.7621 34.3778 34.5306 34.097V38.993H38.2624V40.6305C37.6399 40.8074 37.1153 41.1554 36.7812 41.613C36.4471 42.0706 36.3251 42.6084 36.4368 43.1313C36.5484 43.6542 36.8865 44.1285 37.3913 44.4705C37.8961 44.8124 38.5351 45 39.1953 45C39.8555 45 40.4945 44.8124 40.9993 44.4705C41.5041 44.1285 41.8422 43.6542 41.9538 43.1313C42.0655 42.6084 41.9435 42.0706 41.6094 41.613C41.2753 41.1554 40.7507 40.8074 40.1282 40.6305V37.4937H36.3965V33.8735L38.2411 35.0264C40.3683 33.9009 42.1878 32.4388 43.5884 30.7295L42.1537 29.2472H46.6588V32.2459H50.5625C50.7826 32.7461 51.2157 33.1676 51.7852 33.4361C52.3546 33.7045 53.0239 33.8025 53.6746 33.7128C54.3253 33.623 54.9156 33.3513 55.3411 32.9457C55.7666 32.5401 56 32.0266 56 31.4961C56 30.9656 55.7665 30.4521 55.341 30.0465C54.9154 29.6409 54.3251 29.3693 53.6744 29.2796C53.0237 29.1899 52.3545 29.2879 51.785 29.5563C51.2156 29.8248 50.7825 30.2464 50.5625 30.7466H48.5247V27.7478H42.4319C42.7813 27.1303 43.0689 26.4913 43.2919 25.837L46.2748 25.5374ZM25.2012 18.002H22.4024C22.1551 18.0023 21.918 18.0813 21.7431 18.2219C21.5682 18.3624 21.4698 18.5529 21.4695 18.7517V20.8239C21.4708 21.1403 21.3885 21.4533 21.228 21.7423C21.0676 22.0312 20.8327 22.2895 20.5388 22.5001C20.8327 22.7106 21.0676 22.9689 21.228 23.2579C21.3885 23.5468 21.4708 23.8598 21.4695 24.1762V26.2485C21.4698 26.4472 21.5682 26.6378 21.7431 26.7783C21.918 26.9188 22.1551 26.9979 22.4024 26.9982H25.2012V28.4975H22.4024C21.6603 28.4969 20.9489 28.2597 20.4242 27.8381C19.8995 27.4164 19.6044 26.8448 19.6036 26.2485V24.1762C19.6041 24.037 19.5561 23.9004 19.4649 23.7819C19.3738 23.6635 19.2432 23.5679 19.0879 23.506L17.7377 22.9634V22.0368L19.0879 21.4942C19.2432 21.4323 19.3738 21.3367 19.4649 21.2183C19.5561 21.0998 19.6041 20.9632 19.6036 20.8239V18.7517C19.6044 18.1554 19.8995 17.5837 20.4242 17.1621C20.9489 16.7405 21.6603 16.5033 22.4024 16.5027H25.2012V18.002ZM25.2012 22.5001C25.2012 22.6484 25.1465 22.7933 25.044 22.9166C24.9415 23.0399 24.7958 23.136 24.6253 23.1927C24.4548 23.2494 24.2672 23.2643 24.0863 23.2354C23.9053 23.2064 23.7391 23.135 23.6086 23.0302C23.4781 22.9253 23.3893 22.7918 23.3533 22.6463C23.3173 22.5009 23.3357 22.3502 23.4063 22.2132C23.477 22.0762 23.5965 21.9591 23.75 21.8767C23.9034 21.7944 24.0838 21.7504 24.2683 21.7504C24.5157 21.7504 24.753 21.8294 24.928 21.97C25.1029 22.1106 25.2012 22.3013 25.2012 22.5001ZM28 23.2498C27.8155 23.2498 27.6351 23.2058 27.4817 23.1234C27.3283 23.041 27.2087 22.924 27.1381 22.787C27.0675 22.65 27.049 22.4993 27.085 22.3538C27.121 22.2084 27.2099 22.0748 27.3403 21.97C27.4708 21.8651 27.637 21.7937 27.818 21.7648C27.999 21.7359 28.1866 21.7507 28.357 21.8075C28.5275 21.8642 28.6732 21.9603 28.7757 22.0836C28.8783 22.2069 28.933 22.3518 28.933 22.5001C28.933 22.6989 28.8347 22.8896 28.6597 23.0302C28.4848 23.1708 28.2475 23.2498 28 23.2498ZM38.2624 22.9634L36.9121 23.506C36.7569 23.5678 36.6263 23.6634 36.5351 23.7819C36.444 23.9003 36.396 24.0369 36.3965 24.1762V26.2485C36.3957 26.8448 36.1005 27.4164 35.5758 27.8381C35.0511 28.2597 34.3397 28.4969 33.5977 28.4975H30.7988V26.9982H33.5977C33.845 26.9979 34.0821 26.9188 34.257 26.7783C34.4319 26.6378 34.5303 26.4472 34.5306 26.2485V24.1762C34.5293 23.8598 34.6116 23.5468 34.772 23.2579C34.9324 22.9689 35.1674 22.7106 35.4613 22.5001C35.1674 22.2895 34.9324 22.0312 34.772 21.7423C34.6116 21.4533 34.5293 21.1403 34.5306 20.8239V18.7517C34.5303 18.5529 34.4319 18.3624 34.257 18.2219C34.0821 18.0813 33.845 18.0023 33.5977 18.002H30.7988V16.5027H33.5977C34.3397 16.5033 35.0511 16.7405 35.5758 17.1621C36.1005 17.5837 36.3957 18.1554 36.3965 18.7517V20.8239C36.396 20.9632 36.444 21.0998 36.5351 21.2182C36.6263 21.3367 36.7569 21.4323 36.9121 21.4941L38.2624 22.0368V22.9634ZM30.7988 22.5001C30.7988 22.3518 30.8536 22.2069 30.9561 22.0836C31.0586 21.9603 31.2043 21.8642 31.3748 21.8075C31.5452 21.7507 31.7328 21.7359 31.9138 21.7648C32.0948 21.7937 32.261 21.8651 32.3915 21.97C32.5219 22.0748 32.6108 22.2084 32.6468 22.3538C32.6828 22.4993 32.6643 22.65 32.5937 22.787C32.5231 22.924 32.4035 23.041 32.2501 23.1234C32.0967 23.2058 31.9163 23.2498 31.7318 23.2498C31.4844 23.2498 31.2471 23.1708 31.0721 23.0302C30.8971 22.8896 30.7988 22.6989 30.7988 22.5001Z" fill="#FFAA17"/>
</svg>
