<svg width="65" height="52" viewBox="0 0 65 52" fill="none" xmlns="http://www.w3.org/2000/svg">
<path d="M30.4255 13H0V19.5H30.4255V13ZM5.53191 17.3333H2.76596V15.1667H5.53191V17.3333ZM11.0638 17.3333H8.29787V15.1667H11.0638V17.3333ZM16.5957 17.3333H13.8298V15.1667H16.5957V17.3333ZM22.1277 17.3333H19.3617V15.1667H22.1277V17.3333ZM27.6596 17.3333H24.8936V15.1667H27.6596V17.3333Z" fill="#FFAA17"/>
<path d="M42.8724 17.3333C44.4 17.3333 45.6384 16.3633 45.6384 15.1667C45.6384 13.97 44.4 13 42.8724 13C41.3448 13 40.1064 13.97 40.1064 15.1667C40.1064 16.3633 41.3448 17.3333 42.8724 17.3333Z" fill="#FFAA17"/>
<path d="M30.4255 27.0833H27.6595V29.2499H30.4255V27.0833Z" fill="#FFAA17"/>
<path d="M33.1915 11.9167V20.5834C33.1915 20.8707 33.0458 21.1463 32.7864 21.3494C32.5271 21.5526 32.1753 21.6667 31.8085 21.6667H11.0638V43.3334H40.1064V31.4167C40.1064 31.1294 40.2521 30.8539 40.5115 30.6507C40.7708 30.4476 41.1226 30.3334 41.4894 30.3334H52.5532V8.66675H11.0638V10.8334H31.8085C32.1753 10.8334 32.5271 10.9476 32.7864 11.1507C33.0458 11.3539 33.1915 11.6294 33.1915 11.9167ZM13.8298 26.0001C13.8298 25.7128 13.9755 25.4372 14.2349 25.234C14.4942 25.0309 14.846 24.9167 15.2128 24.9167H20.7447C21.1115 24.9167 21.4632 25.0309 21.7226 25.234C21.982 25.4372 22.1277 25.7128 22.1277 26.0001V30.3334C22.1277 30.6207 21.982 30.8963 21.7226 31.0994C21.4632 31.3026 21.1115 31.4167 20.7447 31.4167H15.2128C14.846 31.4167 14.4942 31.3026 14.2349 31.0994C13.9755 30.8963 13.8298 30.6207 13.8298 30.3334V26.0001ZM13.8298 33.5834H16.5958V35.7501H13.8298V33.5834ZM33.1915 40.0834H13.8298V37.9167H33.1915V40.0834ZM33.1915 35.7501H19.3617V33.5834H33.1915V35.7501ZM33.1915 30.3334C33.1915 30.6207 33.0458 30.8963 32.7864 31.0994C32.5271 31.3026 32.1753 31.4167 31.8085 31.4167H26.2766C25.9098 31.4167 25.5581 31.3026 25.2987 31.0994C25.0393 30.8963 24.8936 30.6207 24.8936 30.3334V26.0001C24.8936 25.7128 25.0393 25.4372 25.2987 25.234C25.5581 25.0309 25.9098 24.9167 26.2766 24.9167H31.8085C32.1753 24.9167 32.5271 25.0309 32.7864 25.234C33.0458 25.4372 33.1915 25.7128 33.1915 26.0001V30.3334ZM35.9575 22.7501C35.958 21.863 36.2365 20.9897 36.7687 20.2067C37.3009 19.4238 38.0705 18.7552 39.0097 18.2597C38.2223 17.658 37.6817 16.8861 37.457 16.0427C37.2324 15.1992 37.3338 14.3224 37.7485 13.5243C38.1631 12.7262 38.872 12.043 39.7847 11.5621C40.6974 11.0812 41.7724 10.8243 42.8724 10.8243C43.9723 10.8243 45.0473 11.0812 45.96 11.5621C46.8727 12.043 47.5816 12.7262 47.9963 13.5243C48.4109 14.3224 48.5123 15.1992 48.2877 16.0427C48.063 16.8861 47.5224 17.658 46.735 18.2597C47.6743 18.7552 48.4438 19.4238 48.976 20.2067C49.5082 20.9897 49.7868 21.863 49.7872 22.7501V27.0834C49.7872 27.3707 49.6415 27.6463 49.3822 27.8494C49.1228 28.0526 48.7711 28.1667 48.4043 28.1667H37.3404C36.9736 28.1667 36.6219 28.0526 36.3625 27.8494C36.1032 27.6463 35.9575 27.3707 35.9575 27.0834V22.7501Z" fill="#FFAA17"/>
<path d="M47.0213 22.75C47.0213 21.888 46.5841 21.0614 45.8061 20.4519C45.028 19.8424 43.9727 19.5 42.8723 19.5C41.772 19.5 40.7167 19.8424 39.9386 20.4519C39.1605 21.0614 38.7234 21.888 38.7234 22.75V26H47.0213V22.75Z" fill="#FFAA17"/>
<path d="M52.5532 0H11.0638V6.5H52.5532V0ZM30.4255 4.33333H27.6596V2.16667H30.4255V4.33333ZM35.9575 4.33333H33.1915V2.16667H35.9575V4.33333Z" fill="#FFAA17"/>
<path d="M42.8723 32.5V47.6667H65V32.5H42.8723ZM45.6383 34.6667H48.4042V36.8333H45.6383V34.6667ZM62.234 45.5H45.6383V43.3333H62.234V45.5ZM62.234 41.1667H45.6383V39H62.234V41.1667ZM62.234 36.8333H51.1702V34.6667H62.234V36.8333Z" fill="#FFAA17"/>
<path d="M19.3617 27.0833H16.5957V29.2499H19.3617V27.0833Z" fill="#FFAA17"/>
<path d="M40.1064 48.75V45.5H11.0638V52H52.5532V49.8333H41.4894C41.1226 49.8333 40.7708 49.7192 40.5115 49.516C40.2521 49.3129 40.1064 49.0373 40.1064 48.75ZM33.1915 49.8333H30.4255V47.6667H33.1915V49.8333Z" fill="#FFAA17"/>
</svg>
