<svg width="57" height="51" viewBox="0 0 57 51" fill="none" xmlns="http://www.w3.org/2000/svg">
<path fill-rule="evenodd" clip-rule="evenodd" d="M36.6139 48.4197H16.8222C16.0024 48.4345 15.3471 49.0086 15.3471 49.7109C15.3471 50.4133 16.0024 50.9853 16.8222 51H36.6139C37.4312 50.9853 38.0866 50.4133 38.0866 49.7109C38.0866 49.0085 37.4312 48.4344 36.6139 48.4197ZM33.3865 43.7134H20.0494V47.1664H33.3865V43.7134ZM0 39.19V41.8334C0 42.1783 0.326426 42.458 0.731416 42.4601H52.7071C53.1071 42.4559 53.4311 42.1762 53.4335 41.8334V39.19H0ZM13.2756 5.91131H56.9996V1.69494C56.9972 0.759128 56.1136 0.00209957 55.0215 0H15.2564C14.1642 0.00210334 13.2782 0.759182 13.2757 1.69494L13.2756 5.91131ZM26.8188 30.3266C26.7231 30.4948 26.6224 30.6609 26.512 30.825L27.5526 32.1204C27.8128 32.4463 27.7686 32.8837 27.4446 33.1634L25.6235 34.7238C25.2946 35.0014 24.7841 35.0413 24.4062 34.8184L22.8918 33.9268C22.5605 34.0887 22.2144 34.2338 21.8634 34.3621C21.8512 34.3663 21.8389 34.3726 21.8266 34.3768H21.8242C21.4585 34.5072 21.083 34.6165 20.7001 34.707L20.3638 36.2526C20.2804 36.6396 19.8877 36.9214 19.4263 36.9235H16.8516C16.3927 36.9214 15.9975 36.6396 15.9141 36.2526L15.5827 34.707V34.7049C14.817 34.5261 14.0807 34.2633 13.391 33.9268L11.8792 34.8184H11.8767C11.4987 35.0413 10.9882 35.0014 10.6594 34.7238L8.83827 33.1634C8.5143 32.8837 8.46767 32.4463 8.73027 32.1204L9.76598 30.8271C9.37329 30.234 9.06648 29.6032 8.85788 28.945L7.05394 28.6611V28.6632C6.59989 28.5896 6.27101 28.2531 6.26856 27.8598V25.6496C6.27101 25.2543 6.59989 24.9178 7.05394 24.8442L8.85788 24.5582C8.96096 24.2323 9.09104 23.9105 9.24076 23.595C9.39538 23.2817 9.56965 22.9747 9.76599 22.6782L8.72539 21.3849C8.46523 21.0589 8.5094 20.6215 8.83338 20.3419L10.6569 18.7794C10.9637 18.5186 11.4374 18.4661 11.8104 18.6532V9.69883H0.731449C0.326485 9.70093 3.41546e-05 9.98062 3.41546e-05 10.3276V37.9348H53.4334V30.3263L26.8188 30.3266ZM20.3641 17.2527C20.2807 16.8658 19.888 16.584 19.4266 16.5819H16.852C16.393 16.584 15.9978 16.8658 15.9144 17.2527L15.5831 18.7984C14.8173 18.9793 14.081 19.24 13.3913 19.5786L13.2809 19.5134L13.2784 7.16685H57V27.376C56.9975 28.3118 56.1115 29.0688 55.0218 29.0709H27.3812C27.396 29.0289 27.4107 28.9868 27.4229 28.9448L29.2269 28.6609C29.6785 28.5873 30.0074 28.2508 30.0098 27.8554V25.6494C30.0074 25.2541 29.6809 24.9176 29.2269 24.844L27.4229 24.558C27.2143 23.9019 26.91 23.271 26.5173 22.6801L27.5579 21.3847H27.5555C27.8132 21.0588 27.7665 20.6213 27.4426 20.3438L25.6215 18.7834V18.7813C25.295 18.5037 24.7821 18.4659 24.4041 18.6888L22.8923 19.5804C22.2001 19.2418 21.4639 18.981 20.6981 18.8002L20.3641 17.2527ZM19.348 19.4208H19.3505C19.402 19.669 19.6229 19.8646 19.9101 19.9171C20.828 20.0938 21.7018 20.4029 22.497 20.8319C22.7473 20.9833 23.0811 20.9854 23.3339 20.834L24.885 19.9213L26.1122 20.9728L25.047 22.3019C24.8801 22.508 24.8728 22.7813 25.0323 22.9938C25.5379 23.673 25.9011 24.4237 26.1097 25.2103C26.1637 25.4668 26.3969 25.6687 26.6963 25.715L28.5493 26.0094V27.4961L26.6963 27.7905C26.4067 27.8347 26.1784 28.024 26.1146 28.27C26.0165 28.6569 25.8766 29.0355 25.7023 29.4035L25.6876 29.4329C25.5109 29.7989 25.2973 30.1521 25.0495 30.4886C24.8728 30.7031 24.8703 30.9891 25.047 31.2057L26.1122 32.5348L24.885 33.5862L23.3339 32.6735V32.6714C23.0933 32.5284 22.7743 32.5242 22.5289 32.6588C22.1386 32.8733 21.7288 33.0563 21.3017 33.2098L21.2649 33.2224C20.8378 33.3738 20.3936 33.4958 19.942 33.5841C19.6426 33.6283 19.407 33.8301 19.353 34.0867L19.0093 35.6744L17.2717 35.6723L16.9256 34.0846C16.8741 33.8364 16.6532 33.6409 16.366 33.5862C15.4481 33.4117 14.5744 33.1046 13.7792 32.6735C13.5288 32.5221 13.195 32.52 12.9423 32.6693L11.3911 33.582L10.1639 32.5305L11.2291 31.2015L11.2316 31.2036C11.3985 30.9954 11.4034 30.7241 11.2463 30.5117C10.7407 29.8324 10.375 29.0817 10.1664 28.2952C10.1148 28.0386 9.8792 27.8367 9.57977 27.7905L7.72676 27.4961L7.72921 26.0114L9.58222 25.717H9.57977C9.86938 25.6707 10.0976 25.4815 10.1614 25.2375C10.3652 24.451 10.7259 23.7003 11.2266 23.021C11.4033 22.8065 11.4058 22.5205 11.2315 22.3039L10.1664 20.9749L11.3935 19.9234L12.9447 20.8361H12.9422C13.1852 20.9791 13.5018 20.9854 13.7497 20.8487C14.5449 20.4155 15.4186 20.1022 16.3391 19.9255C16.6385 19.8793 16.8716 19.6795 16.9256 19.4229L17.2692 17.8352H19.0044L19.3481 19.4229L19.348 19.4208ZM21.5791 23.8033C23.221 25.2102 23.4738 27.4141 22.1853 29.0691C20.8943 30.7219 18.4203 31.3654 16.2777 30.6042C14.1326 29.8429 12.9152 27.8893 13.3669 25.9378C13.8209 23.9863 15.8187 22.5815 18.1406 22.5836C19.4316 22.5815 20.6684 23.0211 21.5791 23.8033ZM18.1405 21.3282C21.1618 21.3303 23.7585 23.1577 24.3475 25.696C24.9366 28.2342 23.3486 30.7745 20.558 31.7632C17.7699 32.7536 14.5523 31.9146 12.8757 29.7633C11.1969 27.612 11.5283 24.7457 13.666 22.916C14.8514 21.8982 16.4617 21.3261 18.1405 21.3282ZM18.7565 2.47512C19.0265 2.70434 19.0658 3.06397 18.8572 3.33314C18.6461 3.60442 18.2436 3.70957 17.8926 3.5855C17.5441 3.46142 17.3453 3.14178 17.4189 2.82421C17.4925 2.50667 17.8165 2.27747 18.1969 2.27537C18.4056 2.27537 18.6093 2.34684 18.7565 2.47512ZM18.1945 1.01991C19.2719 1.01991 20.1997 1.67179 20.4083 2.57606C20.6194 3.48033 20.0549 4.3867 19.0584 4.73996C18.0644 5.09325 16.9158 4.79464 16.3194 4.02918C15.7205 3.2616 15.8383 2.23959 16.5992 1.58555C17.0213 1.22174 17.5956 1.01781 18.1945 1.01991ZM23.4419 2.47512C23.7094 2.70434 23.7511 3.06397 23.5401 3.33314C23.329 3.60442 22.9265 3.70957 22.578 3.5855C22.227 3.46142 22.0282 3.14178 22.1019 2.82421C22.1755 2.50667 22.4995 2.27747 22.8774 2.27537C23.0885 2.27537 23.2898 2.34686 23.4395 2.47514L23.4419 2.47512ZM22.8774 1.01991C23.9548 1.01991 24.8826 1.67179 25.0936 2.57606C25.3047 3.48033 24.7377 4.3888 23.7438 4.74206C22.7498 5.09535 21.6011 4.79674 21.0023 4.02918C20.4034 3.2616 20.5212 2.23959 21.2821 1.58555C21.7042 1.22174 22.2785 1.01781 22.8774 1.01991ZM28.1248 2.47302C28.3923 2.70224 28.434 3.06187 28.223 3.33104C28.0119 3.60232 27.6094 3.70747 27.2584 3.5834C26.9099 3.45722 26.7111 3.13968 26.7847 2.82211C26.8583 2.50247 27.1847 2.27327 27.5627 2.27327C27.7738 2.27327 27.9751 2.34474 28.1248 2.47302ZM27.5652 1.01991C28.6426 1.01991 29.5704 1.67179 29.779 2.57606C29.9901 3.48033 29.4256 4.3888 28.4291 4.74206C27.4351 5.09535 26.2865 4.79674 25.6876 4.02918C25.0888 3.2616 25.2066 2.23959 25.9674 1.58555C26.392 1.22174 26.9663 1.01781 27.5652 1.01991ZM45.2264 3.58337C44.8312 3.57285 44.5171 3.29527 44.5171 2.95668C44.5171 2.616 44.8312 2.33843 45.2264 2.32788H53.608C53.8044 2.32368 53.9983 2.38677 54.1381 2.50663C54.2805 2.62439 54.3615 2.78632 54.3615 2.95666C54.3615 3.12489 54.2805 3.28892 54.1381 3.40669C53.9983 3.52445 53.8044 3.58754 53.608 3.58333L45.2264 3.58337ZM48.4587 15.4395C48.1347 15.2355 48.0635 14.8443 48.3016 14.5646C48.5421 14.2871 48.9987 14.2261 49.3226 14.4301L53.8656 17.2774C54.0595 17.3952 54.1724 17.5866 54.17 17.7906C54.1675 17.9924 54.0497 18.1817 53.8534 18.2974L49.3227 21.1363V21.1342C48.9987 21.3382 48.5422 21.2793 48.3017 20.9996C48.0636 20.722 48.1348 20.3288 48.4587 20.1248L52.1967 17.7842L48.4587 15.4436L48.4587 15.4395ZM42.6935 14.4301C43.0174 14.2261 43.4764 14.2871 43.7145 14.5646C43.9525 14.8443 43.8814 15.2355 43.5574 15.4395L39.8194 17.7801L43.5574 20.1206V20.1227C43.8814 20.3267 43.9525 20.7179 43.7145 20.9976C43.4764 21.2751 43.0174 21.3361 42.6935 21.1322L38.1652 18.2932C37.9689 18.1797 37.8511 17.9904 37.8486 17.7864C37.8462 17.5845 37.9591 17.3932 38.1505 17.2733L42.6935 14.4259L42.6935 14.4301ZM46.3504 14.2681C46.4535 13.9338 46.856 13.7361 47.2438 13.8265C47.634 13.9148 47.8672 14.2576 47.7617 14.592L45.6657 21.2939C45.5626 21.6283 45.1625 21.826 44.7723 21.7355C44.3821 21.6472 44.1513 21.3044 44.2544 20.9701L46.3504 14.2681ZM16.4441 9.96763C16.049 9.95711 15.7348 9.67952 15.7348 9.34093C15.7348 9.00234 16.049 8.72479 16.4441 8.71424H24.6046C24.9998 8.72475 25.3139 9.00234 25.3139 9.34093C25.3139 9.67952 24.9997 9.95708 24.6046 9.96763H16.4441ZM16.4441 12.8171C16.049 12.8087 15.7348 12.5311 15.7348 12.1904C15.7348 11.8518 16.049 11.5743 16.4441 11.5637H32.7632C32.9595 11.5595 33.1534 11.6226 33.2933 11.7404C33.4357 11.8581 33.5167 12.0222 33.5167 12.1904C33.5167 12.3607 33.4357 12.5227 33.2933 12.6404C33.1534 12.7603 32.9595 12.8234 32.7632 12.8171L16.4441 12.8171ZM16.4441 15.6666V15.6687C16.0392 15.6687 15.7127 15.3869 15.7127 15.0399C15.7127 14.695 16.0391 14.4132 16.4441 14.4132H32.7632C33.1682 14.4132 33.4946 14.695 33.4946 15.0399C33.4946 15.3869 33.1682 15.6687 32.7632 15.6687L16.4441 15.6666ZM41.0123 23.7542C40.6171 23.7437 40.303 23.4661 40.303 23.1276C40.303 22.789 40.6171 22.5114 41.0123 22.5009H51.0037C51.2025 22.4967 51.3939 22.5597 51.5363 22.6775C51.6786 22.7953 51.7596 22.9572 51.7596 23.1275C51.7596 23.2979 51.6786 23.4598 51.5363 23.5776C51.3939 23.6953 51.2025 23.7605 51.0037 23.7542L41.0123 23.7542ZM37.8486 26.7047C37.4535 26.6963 37.1393 26.4187 37.1393 26.078C37.1393 25.7394 37.4535 25.4618 37.8486 25.4513H54.1677C54.3665 25.4471 54.5579 25.5102 54.7003 25.6279C54.8427 25.7457 54.9212 25.9097 54.9212 26.078C54.9212 26.2483 54.8427 26.4102 54.7003 26.528C54.558 26.6479 54.3665 26.7109 54.1677 26.7046L37.8486 26.7047ZM23.5791 41.4506C23.3803 41.457 23.1888 41.3939 23.0465 41.274C22.9041 41.1562 22.8231 40.9943 22.8231 40.824C22.8231 40.6557 22.9041 40.4917 23.0465 40.3739C23.1888 40.2562 23.3803 40.1931 23.5791 40.1973H29.8573C30.2524 40.2078 30.5666 40.4854 30.5666 40.824C30.5666 41.1647 30.2524 41.4422 29.8573 41.4507L23.5791 41.4506Z" fill="#FFAA17"/>
</svg>
